<mxfile host="app.diagrams.net" agent="Mozilla/5.0 (Macintosh; Intel Mac OS X 10_15_7) AppleWebKit/537.36 (KHTML, like Gecko) Chrome/137.0.0.0 Safari/537.36" version="26.0.4">
  <diagram name="Страница — 1" id="xsJhWZh9BpKHtAQAPQl_">
    <mxGraphModel dx="3638" dy="4218" grid="1" gridSize="10" guides="1" tooltips="1" connect="1" arrows="1" fold="1" page="1" pageScale="1" pageWidth="827" pageHeight="1169" math="0" shadow="0">
      <root>
        <mxCell id="0" />
        <mxCell id="1" parent="0" />
        <mxCell id="shmqeub3Hfxkf1oyRuU8-24" value="" style="verticalLabelPosition=bottom;verticalAlign=top;html=1;shape=mxgraph.basic.polygon;polyCoords=[[0.25,0],[0.75,0],[1,0.25],[1,0.75],[0.75,1],[0.25,1],[0,0.75],[0,0.25]];polyline=0;fillColor=#f8cecc;strokeColor=#b85450;" parent="1" vertex="1">
          <mxGeometry x="1531" y="418.5" width="380" height="248" as="geometry" />
        </mxCell>
        <mxCell id="shmqeub3Hfxkf1oyRuU8-19" value="" style="verticalLabelPosition=bottom;verticalAlign=top;html=1;shape=mxgraph.basic.polygon;polyCoords=[[0.25,0],[0.75,0],[1,0.25],[1,0.75],[0.75,1],[0.25,1],[0,0.75],[0,0.25]];polyline=0;fillColor=#f8cecc;strokeColor=#b85450;" parent="1" vertex="1">
          <mxGeometry x="1950" y="-92.5" width="465" height="268" as="geometry" />
        </mxCell>
        <mxCell id="shmqeub3Hfxkf1oyRuU8-16" value="" style="verticalLabelPosition=bottom;verticalAlign=top;html=1;shape=mxgraph.basic.polygon;polyCoords=[[0.25,0],[0.75,0],[1,0.25],[1,0.75],[0.75,1],[0.25,1],[0,0.75],[0,0.25]];polyline=0;fillColor=#f8cecc;strokeColor=#b85450;" parent="1" vertex="1">
          <mxGeometry x="1510" y="74.5" width="380" height="248" as="geometry" />
        </mxCell>
        <mxCell id="shmqeub3Hfxkf1oyRuU8-12" value="" style="verticalLabelPosition=bottom;verticalAlign=top;html=1;shape=mxgraph.basic.polygon;polyCoords=[[0.25,0],[0.75,0],[1,0.25],[1,0.75],[0.75,1],[0.25,1],[0,0.75],[0,0.25]];polyline=0;fillColor=#f8cecc;strokeColor=#b85450;" parent="1" vertex="1">
          <mxGeometry x="1528" y="-257.5" width="240" height="240" as="geometry" />
        </mxCell>
        <mxCell id="shmqeub3Hfxkf1oyRuU8-10" value="" style="verticalLabelPosition=bottom;verticalAlign=top;html=1;shape=mxgraph.basic.polygon;polyCoords=[[0.25,0],[0.75,0],[1,0.25],[1,0.75],[0.75,1],[0.25,1],[0,0.75],[0,0.25]];polyline=0;fillColor=#f8cecc;strokeColor=#b85450;" parent="1" vertex="1">
          <mxGeometry x="1160" y="820" width="100" height="100" as="geometry" />
        </mxCell>
        <mxCell id="shmqeub3Hfxkf1oyRuU8-8" value="" style="verticalLabelPosition=bottom;verticalAlign=top;html=1;shape=mxgraph.basic.polygon;polyCoords=[[0.25,0],[0.75,0],[1,0.25],[1,0.75],[0.75,1],[0.25,1],[0,0.75],[0,0.25]];polyline=0;fillColor=#f8cecc;strokeColor=#b85450;" parent="1" vertex="1">
          <mxGeometry x="1160" y="1055" width="100" height="100" as="geometry" />
        </mxCell>
        <mxCell id="u8N03ifTz9dWLc4tBRIb-10" style="edgeStyle=orthogonalEdgeStyle;rounded=0;orthogonalLoop=1;jettySize=auto;html=1;exitX=1;exitY=0.5;exitDx=0;exitDy=0;entryX=0;entryY=0.5;entryDx=0;entryDy=0;" parent="1" source="u8N03ifTz9dWLc4tBRIb-1" target="u8N03ifTz9dWLc4tBRIb-7" edge="1">
          <mxGeometry relative="1" as="geometry" />
        </mxCell>
        <mxCell id="6PQ6Uy4PErdUa_lczMhg-1" style="edgeStyle=orthogonalEdgeStyle;rounded=0;orthogonalLoop=1;jettySize=auto;html=1;exitX=0.999;exitY=0.745;exitDx=0;exitDy=0;entryX=0;entryY=0.5;entryDx=0;entryDy=0;exitPerimeter=0;" parent="1" source="u8N03ifTz9dWLc4tBRIb-1" target="u8N03ifTz9dWLc4tBRIb-8" edge="1">
          <mxGeometry relative="1" as="geometry" />
        </mxCell>
        <mxCell id="6PQ6Uy4PErdUa_lczMhg-38" style="edgeStyle=orthogonalEdgeStyle;rounded=0;orthogonalLoop=1;jettySize=auto;html=1;exitX=0.5;exitY=0;exitDx=0;exitDy=0;entryX=0;entryY=0.5;entryDx=0;entryDy=0;" parent="1" source="u8N03ifTz9dWLc4tBRIb-1" target="u8N03ifTz9dWLc4tBRIb-3" edge="1">
          <mxGeometry relative="1" as="geometry" />
        </mxCell>
        <mxCell id="shmqeub3Hfxkf1oyRuU8-1" style="edgeStyle=orthogonalEdgeStyle;rounded=0;orthogonalLoop=1;jettySize=auto;html=1;exitX=0.5;exitY=1;exitDx=0;exitDy=0;entryX=1;entryY=0.5;entryDx=0;entryDy=0;" parent="1" source="u8N03ifTz9dWLc4tBRIb-1" target="u8N03ifTz9dWLc4tBRIb-5" edge="1">
          <mxGeometry relative="1" as="geometry" />
        </mxCell>
        <mxCell id="KpwYucl3YDDtUZVu9sAc-1" style="edgeStyle=orthogonalEdgeStyle;rounded=0;orthogonalLoop=1;jettySize=auto;html=1;entryX=1;entryY=0.5;entryDx=0;entryDy=0;" parent="1" source="u8N03ifTz9dWLc4tBRIb-1" target="u8N03ifTz9dWLc4tBRIb-9" edge="1">
          <mxGeometry relative="1" as="geometry" />
        </mxCell>
        <mxCell id="u8N03ifTz9dWLc4tBRIb-1" value="&lt;h1&gt;&lt;font style=&quot;font-size: 100px;&quot;&gt;ЦПВК&lt;/font&gt;&lt;/h1&gt;" style="rounded=1;whiteSpace=wrap;html=1;" parent="1" vertex="1">
          <mxGeometry x="210" y="-23" width="408" height="204" as="geometry" />
        </mxCell>
        <mxCell id="u8N03ifTz9dWLc4tBRIb-2" value="&lt;h1&gt;ОСРВ&lt;/h1&gt;" style="rounded=1;whiteSpace=wrap;html=1;" parent="1" vertex="1">
          <mxGeometry x="-140" y="-640" width="120" height="60" as="geometry" />
        </mxCell>
        <mxCell id="6PQ6Uy4PErdUa_lczMhg-40" value="" style="edgeStyle=orthogonalEdgeStyle;rounded=0;orthogonalLoop=1;jettySize=auto;html=1;entryX=0;entryY=0.5;entryDx=0;entryDy=0;" parent="1" source="u8N03ifTz9dWLc4tBRIb-3" target="6PQ6Uy4PErdUa_lczMhg-39" edge="1">
          <mxGeometry relative="1" as="geometry">
            <mxPoint x="900" y="-770" as="targetPoint" />
          </mxGeometry>
        </mxCell>
        <mxCell id="6PQ6Uy4PErdUa_lczMhg-42" value="" style="edgeStyle=orthogonalEdgeStyle;rounded=0;orthogonalLoop=1;jettySize=auto;html=1;entryX=0;entryY=0.5;entryDx=0;entryDy=0;" parent="1" source="u8N03ifTz9dWLc4tBRIb-3" target="6PQ6Uy4PErdUa_lczMhg-41" edge="1">
          <mxGeometry relative="1" as="geometry" />
        </mxCell>
        <mxCell id="6PQ6Uy4PErdUa_lczMhg-44" value="" style="edgeStyle=orthogonalEdgeStyle;rounded=0;orthogonalLoop=1;jettySize=auto;html=1;entryX=0;entryY=0.5;entryDx=0;entryDy=0;" parent="1" source="u8N03ifTz9dWLc4tBRIb-3" target="6PQ6Uy4PErdUa_lczMhg-43" edge="1">
          <mxGeometry relative="1" as="geometry" />
        </mxCell>
        <mxCell id="6PQ6Uy4PErdUa_lczMhg-46" value="" style="edgeStyle=orthogonalEdgeStyle;rounded=0;orthogonalLoop=1;jettySize=auto;html=1;entryX=0;entryY=0.5;entryDx=0;entryDy=0;" parent="1" source="u8N03ifTz9dWLc4tBRIb-3" target="6PQ6Uy4PErdUa_lczMhg-45" edge="1">
          <mxGeometry relative="1" as="geometry" />
        </mxCell>
        <mxCell id="u8N03ifTz9dWLc4tBRIb-3" value="&lt;h1&gt;&lt;font style=&quot;font-size: 50px;&quot;&gt;ОКР&lt;/font&gt;&lt;/h1&gt;" style="rounded=1;whiteSpace=wrap;html=1;" parent="1" vertex="1">
          <mxGeometry x="680" y="-610" width="310" height="120" as="geometry" />
        </mxCell>
        <mxCell id="u8N03ifTz9dWLc4tBRIb-4" value="&lt;h1&gt;ВЦОД&lt;/h1&gt;" style="rounded=1;whiteSpace=wrap;html=1;" parent="1" vertex="1">
          <mxGeometry x="-560" y="-329" width="120" height="60" as="geometry" />
        </mxCell>
        <mxCell id="shmqeub3Hfxkf1oyRuU8-26" value="" style="edgeStyle=orthogonalEdgeStyle;rounded=0;orthogonalLoop=1;jettySize=auto;html=1;entryX=1;entryY=0.5;entryDx=0;entryDy=0;" parent="1" source="u8N03ifTz9dWLc4tBRIb-5" target="shmqeub3Hfxkf1oyRuU8-25" edge="1">
          <mxGeometry relative="1" as="geometry" />
        </mxCell>
        <mxCell id="u8N03ifTz9dWLc4tBRIb-5" value="&lt;h1&gt;&lt;font style=&quot;font-size: 50px;&quot;&gt;RHV&lt;/font&gt;&lt;/h1&gt;" style="rounded=1;whiteSpace=wrap;html=1;" parent="1" vertex="1">
          <mxGeometry x="-120" y="760" width="300" height="120" as="geometry" />
        </mxCell>
        <mxCell id="u8N03ifTz9dWLc4tBRIb-12" value="" style="edgeStyle=orthogonalEdgeStyle;rounded=0;orthogonalLoop=1;jettySize=auto;html=1;entryX=0;entryY=0.5;entryDx=0;entryDy=0;" parent="1" source="u8N03ifTz9dWLc4tBRIb-7" edge="1">
          <mxGeometry relative="1" as="geometry">
            <mxPoint x="1320" y="-160" as="targetPoint" />
          </mxGeometry>
        </mxCell>
        <mxCell id="u8N03ifTz9dWLc4tBRIb-15" value="" style="edgeStyle=orthogonalEdgeStyle;rounded=0;orthogonalLoop=1;jettySize=auto;html=1;" parent="1" source="u8N03ifTz9dWLc4tBRIb-7" edge="1">
          <mxGeometry relative="1" as="geometry">
            <mxPoint x="1320" y="79.0666666666666" as="targetPoint" />
          </mxGeometry>
        </mxCell>
        <mxCell id="u8N03ifTz9dWLc4tBRIb-17" value="" style="edgeStyle=orthogonalEdgeStyle;rounded=0;orthogonalLoop=1;jettySize=auto;html=1;entryX=0;entryY=0.5;entryDx=0;entryDy=0;" parent="1" source="u8N03ifTz9dWLc4tBRIb-7" edge="1">
          <mxGeometry relative="1" as="geometry">
            <mxPoint x="1320" y="300" as="targetPoint" />
          </mxGeometry>
        </mxCell>
        <mxCell id="shmqeub3Hfxkf1oyRuU8-3" value="" style="edgeStyle=orthogonalEdgeStyle;rounded=0;orthogonalLoop=1;jettySize=auto;html=1;entryX=0;entryY=0.5;entryDx=0;entryDy=0;" parent="1" source="u8N03ifTz9dWLc4tBRIb-7" target="shmqeub3Hfxkf1oyRuU8-2" edge="1">
          <mxGeometry relative="1" as="geometry">
            <Array as="points">
              <mxPoint x="1270" y="80" />
              <mxPoint x="1270" y="585" />
            </Array>
          </mxGeometry>
        </mxCell>
        <mxCell id="shmqeub3Hfxkf1oyRuU8-15" value="" style="edgeStyle=orthogonalEdgeStyle;rounded=0;orthogonalLoop=1;jettySize=auto;html=1;entryX=0;entryY=0.5;entryDx=0;entryDy=0;" parent="1" source="u8N03ifTz9dWLc4tBRIb-7" target="shmqeub3Hfxkf1oyRuU8-14" edge="1">
          <mxGeometry relative="1" as="geometry" />
        </mxCell>
        <mxCell id="shmqeub3Hfxkf1oyRuU8-18" value="" style="edgeStyle=orthogonalEdgeStyle;rounded=0;orthogonalLoop=1;jettySize=auto;html=1;entryX=0;entryY=0.5;entryDx=0;entryDy=0;exitX=1;exitY=0.5;exitDx=0;exitDy=0;" parent="1" source="u8N03ifTz9dWLc4tBRIb-7" target="shmqeub3Hfxkf1oyRuU8-17" edge="1">
          <mxGeometry relative="1" as="geometry">
            <mxPoint x="1200" y="-79" as="sourcePoint" />
            <mxPoint x="2010" y="710" as="targetPoint" />
            <Array as="points">
              <mxPoint x="1270" y="80" />
              <mxPoint x="1270" y="720" />
              <mxPoint x="2120" y="720" />
              <mxPoint x="2120" y="718" />
            </Array>
          </mxGeometry>
        </mxCell>
        <mxCell id="shmqeub3Hfxkf1oyRuU8-23" value="" style="edgeStyle=orthogonalEdgeStyle;rounded=0;orthogonalLoop=1;jettySize=auto;html=1;entryX=0;entryY=0.5;entryDx=0;entryDy=0;" parent="1" source="u8N03ifTz9dWLc4tBRIb-7" target="shmqeub3Hfxkf1oyRuU8-22" edge="1">
          <mxGeometry relative="1" as="geometry" />
        </mxCell>
        <mxCell id="u8N03ifTz9dWLc4tBRIb-7" value="&lt;h1&gt;&lt;font style=&quot;font-size: 50px;&quot;&gt;JetRuLab&lt;/font&gt;&lt;/h1&gt;" style="rounded=1;whiteSpace=wrap;html=1;" parent="1" vertex="1">
          <mxGeometry x="920" y="20" width="300" height="120" as="geometry" />
        </mxCell>
        <mxCell id="6PQ6Uy4PErdUa_lczMhg-4" value="" style="edgeStyle=orthogonalEdgeStyle;rounded=0;orthogonalLoop=1;jettySize=auto;html=1;entryX=0;entryY=0.5;entryDx=0;entryDy=0;" parent="1" source="u8N03ifTz9dWLc4tBRIb-8" target="6PQ6Uy4PErdUa_lczMhg-2" edge="1">
          <mxGeometry relative="1" as="geometry" />
        </mxCell>
        <mxCell id="6PQ6Uy4PErdUa_lczMhg-6" value="" style="edgeStyle=orthogonalEdgeStyle;rounded=0;orthogonalLoop=1;jettySize=auto;html=1;entryX=0;entryY=0.5;entryDx=0;entryDy=0;" parent="1" source="u8N03ifTz9dWLc4tBRIb-8" target="6PQ6Uy4PErdUa_lczMhg-5" edge="1">
          <mxGeometry relative="1" as="geometry" />
        </mxCell>
        <mxCell id="6PQ6Uy4PErdUa_lczMhg-8" value="" style="edgeStyle=orthogonalEdgeStyle;rounded=0;orthogonalLoop=1;jettySize=auto;html=1;entryX=0;entryY=0.5;entryDx=0;entryDy=0;" parent="1" source="u8N03ifTz9dWLc4tBRIb-8" target="6PQ6Uy4PErdUa_lczMhg-7" edge="1">
          <mxGeometry relative="1" as="geometry" />
        </mxCell>
        <mxCell id="u8N03ifTz9dWLc4tBRIb-8" value="&lt;h1&gt;&lt;font style=&quot;font-size: 50px;&quot;&gt;StandCloud&lt;/font&gt;&lt;/h1&gt;" style="rounded=1;whiteSpace=wrap;html=1;" parent="1" vertex="1">
          <mxGeometry x="670" y="1155" width="300" height="120" as="geometry" />
        </mxCell>
        <mxCell id="u8N03ifTz9dWLc4tBRIb-9" value="&lt;h1&gt;ОСХД&lt;/h1&gt;" style="rounded=1;whiteSpace=wrap;html=1;" parent="1" vertex="1">
          <mxGeometry x="-555" y="19" width="300" height="120" as="geometry" />
        </mxCell>
        <mxCell id="u8N03ifTz9dWLc4tBRIb-33" value="Большаков Иван" style="shape=umlActor;verticalLabelPosition=bottom;verticalAlign=top;html=1;outlineConnect=0;" parent="1" vertex="1">
          <mxGeometry x="1055" y="-61" width="30" height="60" as="geometry" />
        </mxCell>
        <mxCell id="6PQ6Uy4PErdUa_lczMhg-2" value="VK Cloud" style="whiteSpace=wrap;html=1;rounded=1;fontSize=14;" parent="1" vertex="1">
          <mxGeometry x="1060" y="1155" width="300" height="60" as="geometry" />
        </mxCell>
        <mxCell id="6PQ6Uy4PErdUa_lczMhg-17" value="" style="edgeStyle=orthogonalEdgeStyle;rounded=0;orthogonalLoop=1;jettySize=auto;html=1;entryX=0;entryY=0.5;entryDx=0;entryDy=0;fontSize=14;" parent="1" source="6PQ6Uy4PErdUa_lczMhg-5" target="6PQ6Uy4PErdUa_lczMhg-16" edge="1">
          <mxGeometry relative="1" as="geometry" />
        </mxCell>
        <mxCell id="6PQ6Uy4PErdUa_lczMhg-19" value="" style="edgeStyle=orthogonalEdgeStyle;rounded=0;orthogonalLoop=1;jettySize=auto;html=1;fontSize=14;" parent="1" source="6PQ6Uy4PErdUa_lczMhg-5" target="6PQ6Uy4PErdUa_lczMhg-18" edge="1">
          <mxGeometry relative="1" as="geometry" />
        </mxCell>
        <mxCell id="6PQ6Uy4PErdUa_lczMhg-21" value="" style="edgeStyle=orthogonalEdgeStyle;rounded=0;orthogonalLoop=1;jettySize=auto;html=1;entryX=0;entryY=0.5;entryDx=0;entryDy=0;fontSize=14;" parent="1" source="6PQ6Uy4PErdUa_lczMhg-5" target="6PQ6Uy4PErdUa_lczMhg-20" edge="1">
          <mxGeometry relative="1" as="geometry" />
        </mxCell>
        <mxCell id="6PQ6Uy4PErdUa_lczMhg-5" value="&lt;span style=&quot;color: rgb(0, 0, 0); font-family: &amp;quot;Times New Roman&amp;quot;; font-style: normal; font-variant-ligatures: normal; font-variant-caps: normal; font-weight: 400; letter-spacing: normal; orphans: 2; text-align: start; text-indent: 0px; text-transform: none; widows: 2; word-spacing: 0px; -webkit-text-stroke-width: 0px; white-space: normal; text-decoration-thickness: initial; text-decoration-style: initial; text-decoration-color: initial; float: none; display: inline !important;&quot;&gt;Отдел облачных вычислений и автоматизации ИТ-инфраструктуры&lt;/span&gt;" style="whiteSpace=wrap;html=1;rounded=1;fontSize=14;" parent="1" vertex="1">
          <mxGeometry x="1060" y="920" width="300" height="60" as="geometry" />
        </mxCell>
        <mxCell id="6PQ6Uy4PErdUa_lczMhg-23" value="" style="edgeStyle=orthogonalEdgeStyle;rounded=0;orthogonalLoop=1;jettySize=auto;html=1;entryX=0;entryY=0.5;entryDx=0;entryDy=0;fontSize=14;" parent="1" source="6PQ6Uy4PErdUa_lczMhg-7" target="6PQ6Uy4PErdUa_lczMhg-22" edge="1">
          <mxGeometry relative="1" as="geometry" />
        </mxCell>
        <mxCell id="6PQ6Uy4PErdUa_lczMhg-27" style="edgeStyle=orthogonalEdgeStyle;rounded=0;orthogonalLoop=1;jettySize=auto;html=1;exitX=1;exitY=0.5;exitDx=0;exitDy=0;entryX=0;entryY=0.5;entryDx=0;entryDy=0;fontSize=14;" parent="1" source="6PQ6Uy4PErdUa_lczMhg-7" target="6PQ6Uy4PErdUa_lczMhg-24" edge="1">
          <mxGeometry relative="1" as="geometry" />
        </mxCell>
        <mxCell id="6PQ6Uy4PErdUa_lczMhg-29" value="" style="edgeStyle=orthogonalEdgeStyle;rounded=0;orthogonalLoop=1;jettySize=auto;html=1;entryX=0;entryY=0.5;entryDx=0;entryDy=0;fontSize=14;" parent="1" source="6PQ6Uy4PErdUa_lczMhg-7" target="6PQ6Uy4PErdUa_lczMhg-28" edge="1">
          <mxGeometry relative="1" as="geometry" />
        </mxCell>
        <mxCell id="6PQ6Uy4PErdUa_lczMhg-31" value="" style="edgeStyle=orthogonalEdgeStyle;rounded=0;orthogonalLoop=1;jettySize=auto;html=1;entryX=0;entryY=0.5;entryDx=0;entryDy=0;fontSize=14;" parent="1" source="6PQ6Uy4PErdUa_lczMhg-7" target="6PQ6Uy4PErdUa_lczMhg-30" edge="1">
          <mxGeometry relative="1" as="geometry" />
        </mxCell>
        <mxCell id="6PQ6Uy4PErdUa_lczMhg-33" value="" style="edgeStyle=orthogonalEdgeStyle;rounded=0;orthogonalLoop=1;jettySize=auto;html=1;entryX=0;entryY=0.5;entryDx=0;entryDy=0;fontSize=14;" parent="1" source="6PQ6Uy4PErdUa_lczMhg-7" target="6PQ6Uy4PErdUa_lczMhg-32" edge="1">
          <mxGeometry relative="1" as="geometry" />
        </mxCell>
        <mxCell id="6PQ6Uy4PErdUa_lczMhg-35" value="" style="edgeStyle=orthogonalEdgeStyle;rounded=0;orthogonalLoop=1;jettySize=auto;html=1;entryX=0;entryY=0.5;entryDx=0;entryDy=0;fontSize=14;" parent="1" source="6PQ6Uy4PErdUa_lczMhg-7" target="6PQ6Uy4PErdUa_lczMhg-34" edge="1">
          <mxGeometry relative="1" as="geometry" />
        </mxCell>
        <mxCell id="6PQ6Uy4PErdUa_lczMhg-37" value="" style="edgeStyle=orthogonalEdgeStyle;rounded=0;orthogonalLoop=1;jettySize=auto;html=1;entryX=0;entryY=0.5;entryDx=0;entryDy=0;fontSize=14;" parent="1" source="6PQ6Uy4PErdUa_lczMhg-7" target="6PQ6Uy4PErdUa_lczMhg-36" edge="1">
          <mxGeometry relative="1" as="geometry" />
        </mxCell>
        <mxCell id="6PQ6Uy4PErdUa_lczMhg-7" value="Отдел мониторинга" style="whiteSpace=wrap;html=1;rounded=1;fontSize=14;" parent="1" vertex="1">
          <mxGeometry x="1060" y="1365" width="300" height="60" as="geometry" />
        </mxCell>
        <mxCell id="6PQ6Uy4PErdUa_lczMhg-15" value="" style="edgeStyle=orthogonalEdgeStyle;rounded=0;orthogonalLoop=1;jettySize=auto;html=1;fontSize=14;" parent="1" source="6PQ6Uy4PErdUa_lczMhg-13" target="6PQ6Uy4PErdUa_lczMhg-5" edge="1">
          <mxGeometry relative="1" as="geometry" />
        </mxCell>
        <mxCell id="6PQ6Uy4PErdUa_lczMhg-9" value="&lt;div&gt;&lt;span style=&quot;background-color: transparent; color: light-dark(rgb(0, 0, 0), rgb(255, 255, 255));&quot;&gt;???Куйкин И???&lt;/span&gt;&lt;/div&gt;" style="shape=umlActor;verticalLabelPosition=bottom;verticalAlign=top;html=1;outlineConnect=0;fontSize=14;" parent="1" vertex="1">
          <mxGeometry x="1195" y="1066" width="30" height="60" as="geometry" />
        </mxCell>
        <mxCell id="6PQ6Uy4PErdUa_lczMhg-13" value="&lt;div&gt;&lt;span style=&quot;background-color: transparent; color: light-dark(rgb(0, 0, 0), rgb(255, 255, 255));&quot;&gt;???&lt;/span&gt;&lt;span style=&quot;background-color: transparent; color: light-dark(rgb(0, 0, 0), rgb(255, 255, 255));&quot;&gt;Медведев В.???&lt;/span&gt;&lt;/div&gt;" style="shape=umlActor;verticalLabelPosition=bottom;verticalAlign=top;html=1;outlineConnect=0;fontSize=14;" parent="1" vertex="1">
          <mxGeometry x="1195" y="835" width="30" height="60" as="geometry" />
        </mxCell>
        <mxCell id="6PQ6Uy4PErdUa_lczMhg-14" value="&lt;div&gt;&lt;span style=&quot;background-color: transparent; color: light-dark(rgb(0, 0, 0), rgb(255, 255, 255));&quot;&gt;Акопян Алексей&lt;/span&gt;&lt;/div&gt;" style="shape=umlActor;verticalLabelPosition=bottom;verticalAlign=top;html=1;outlineConnect=0;fontSize=14;" parent="1" vertex="1">
          <mxGeometry x="1195" y="1279" width="30" height="60" as="geometry" />
        </mxCell>
        <mxCell id="6PQ6Uy4PErdUa_lczMhg-16" value="ManageIQ" style="whiteSpace=wrap;html=1;rounded=1;fontSize=14;" parent="1" vertex="1">
          <mxGeometry x="1420" y="836" width="200" height="60" as="geometry" />
        </mxCell>
        <mxCell id="6PQ6Uy4PErdUa_lczMhg-18" value="Morpheus" style="whiteSpace=wrap;html=1;rounded=1;fontSize=14;" parent="1" vertex="1">
          <mxGeometry x="1420" y="920" width="200" height="60" as="geometry" />
        </mxCell>
        <mxCell id="6PQ6Uy4PErdUa_lczMhg-20" value="Open Stack" style="whiteSpace=wrap;html=1;rounded=1;fontSize=14;" parent="1" vertex="1">
          <mxGeometry x="1420" y="1006" width="200" height="60" as="geometry" />
        </mxCell>
        <mxCell id="6PQ6Uy4PErdUa_lczMhg-22" value="Zabbix" style="whiteSpace=wrap;html=1;rounded=1;fontSize=14;" parent="1" vertex="1">
          <mxGeometry x="1420" y="1155" width="200" height="60" as="geometry" />
        </mxCell>
        <mxCell id="6PQ6Uy4PErdUa_lczMhg-24" value="Пульт" style="whiteSpace=wrap;html=1;rounded=1;fontSize=14;" parent="1" vertex="1">
          <mxGeometry x="1420" y="1225" width="200" height="60" as="geometry" />
        </mxCell>
        <mxCell id="6PQ6Uy4PErdUa_lczMhg-28" value="MONQ" style="whiteSpace=wrap;html=1;rounded=1;fontSize=14;" parent="1" vertex="1">
          <mxGeometry x="1420" y="1505" width="200" height="60" as="geometry" />
        </mxCell>
        <mxCell id="6PQ6Uy4PErdUa_lczMhg-30" value="Grafana" style="whiteSpace=wrap;html=1;rounded=1;fontSize=14;" parent="1" vertex="1">
          <mxGeometry x="1420" y="1575" width="200" height="60" as="geometry" />
        </mxCell>
        <mxCell id="6PQ6Uy4PErdUa_lczMhg-32" value="&lt;span style=&quot;color: rgb(0, 0, 0); font-family: &amp;quot;Times New Roman&amp;quot;; font-style: normal; font-variant-ligatures: normal; font-variant-caps: normal; font-weight: 400; letter-spacing: normal; orphans: 2; text-align: start; text-indent: 0px; text-transform: none; widows: 2; word-spacing: 0px; -webkit-text-stroke-width: 0px; white-space: normal; text-decoration-thickness: initial; text-decoration-style: initial; text-decoration-color: initial; float: none; display: inline !important;&quot;&gt;Prometheus + VictoriaMetrics&lt;/span&gt;" style="whiteSpace=wrap;html=1;rounded=1;fontSize=14;" parent="1" vertex="1">
          <mxGeometry x="1420" y="1435" width="200" height="60" as="geometry" />
        </mxCell>
        <mxCell id="6PQ6Uy4PErdUa_lczMhg-34" value="Proto Observability Platform" style="html=1;rounded=1;align=center;whiteSpace=wrap;fontSize=14;" parent="1" vertex="1">
          <mxGeometry x="1420" y="1365" width="200" height="60" as="geometry" />
        </mxCell>
        <mxCell id="6PQ6Uy4PErdUa_lczMhg-36" value="OpenSearch" style="whiteSpace=wrap;html=1;rounded=1;fontSize=14;" parent="1" vertex="1">
          <mxGeometry x="1420" y="1295" width="200" height="60" as="geometry" />
        </mxCell>
        <mxCell id="6PQ6Uy4PErdUa_lczMhg-39" value="SAP HANA" style="whiteSpace=wrap;html=1;rounded=1;" parent="1" vertex="1">
          <mxGeometry x="1121" y="-657.5" width="120" height="60" as="geometry" />
        </mxCell>
        <mxCell id="6PQ6Uy4PErdUa_lczMhg-41" value="SPARC" style="whiteSpace=wrap;html=1;rounded=1;" parent="1" vertex="1">
          <mxGeometry x="1121" y="-562.5" width="120" height="60" as="geometry" />
        </mxCell>
        <mxCell id="6PQ6Uy4PErdUa_lczMhg-48" value="" style="edgeStyle=orthogonalEdgeStyle;rounded=0;orthogonalLoop=1;jettySize=auto;html=1;" parent="1" source="6PQ6Uy4PErdUa_lczMhg-43" target="6PQ6Uy4PErdUa_lczMhg-47" edge="1">
          <mxGeometry relative="1" as="geometry" />
        </mxCell>
        <mxCell id="6PQ6Uy4PErdUa_lczMhg-50" style="edgeStyle=orthogonalEdgeStyle;rounded=0;orthogonalLoop=1;jettySize=auto;html=1;exitX=1;exitY=0.5;exitDx=0;exitDy=0;entryX=0;entryY=0.5;entryDx=0;entryDy=0;" parent="1" source="6PQ6Uy4PErdUa_lczMhg-43" target="6PQ6Uy4PErdUa_lczMhg-49" edge="1">
          <mxGeometry relative="1" as="geometry" />
        </mxCell>
        <mxCell id="6PQ6Uy4PErdUa_lczMhg-43" value="IBM Power" style="whiteSpace=wrap;html=1;rounded=1;" parent="1" vertex="1">
          <mxGeometry x="1121" y="-467.5" width="120" height="60" as="geometry" />
        </mxCell>
        <mxCell id="6PQ6Uy4PErdUa_lczMhg-45" value="MongoDB" style="whiteSpace=wrap;html=1;rounded=1;" parent="1" vertex="1">
          <mxGeometry x="1121" y="-752.5" width="120" height="60" as="geometry" />
        </mxCell>
        <mxCell id="6PQ6Uy4PErdUa_lczMhg-47" value="Power P770" style="whiteSpace=wrap;html=1;rounded=1;" parent="1" vertex="1">
          <mxGeometry x="1370" y="-510" width="120" height="60" as="geometry" />
        </mxCell>
        <mxCell id="6PQ6Uy4PErdUa_lczMhg-49" value="Power 9 S922" style="whiteSpace=wrap;html=1;rounded=1;" parent="1" vertex="1">
          <mxGeometry x="1370" y="-430" width="120" height="60" as="geometry" />
        </mxCell>
        <mxCell id="6PQ6Uy4PErdUa_lczMhg-51" value="Клочков Дмитрий" style="shape=umlActor;verticalLabelPosition=bottom;verticalAlign=top;html=1;outlineConnect=0;" parent="1" vertex="1">
          <mxGeometry x="1170" y="-840" width="30" height="60" as="geometry" />
        </mxCell>
        <mxCell id="shmqeub3Hfxkf1oyRuU8-2" value="???VK Mail???" style="whiteSpace=wrap;html=1;rounded=1;" parent="1" vertex="1">
          <mxGeometry x="1578" y="-122.5" width="120" height="60" as="geometry" />
        </mxCell>
        <mxCell id="shmqeub3Hfxkf1oyRuU8-4" value="Соболевский Александр" style="shape=umlActor;verticalLabelPosition=bottom;verticalAlign=top;html=1;outlineConnect=0;" parent="1" vertex="1">
          <mxGeometry x="1623" y="-217.5" width="30" height="60" as="geometry" />
        </mxCell>
        <mxCell id="shmqeub3Hfxkf1oyRuU8-13" value="" style="verticalLabelPosition=bottom;verticalAlign=top;html=1;shape=mxgraph.basic.polygon;polyCoords=[[0.25,0],[0.75,0],[1,0.25],[1,0.75],[0.75,1],[0.25,1],[0,0.75],[0,0.25]];polyline=0;fillColor=#f8cecc;strokeColor=#b85450;" parent="1" vertex="1">
          <mxGeometry x="160" y="990" width="240" height="240" as="geometry" />
        </mxCell>
        <mxCell id="shmqeub3Hfxkf1oyRuU8-14" value="ВИРТ&lt;div&gt;БРЕСТ&lt;/div&gt;&lt;div&gt;&lt;a style=&quot;font-family: Calibri, sans-serif; font-size: 11pt; background-color: transparent;&quot; href=&quot;https://confluence.jet.su/pages/viewpage.action?pageId=217754637&quot;&gt;https://confluence.jet.su/pages/viewpage.action?pageId=217754637&lt;/a&gt;&lt;/div&gt;" style="rhombus;whiteSpace=wrap;html=1;rounded=1;" parent="1" vertex="1">
          <mxGeometry x="1521" y="84.5" width="359" height="220" as="geometry" />
        </mxCell>
        <mxCell id="shmqeub3Hfxkf1oyRuU8-17" value="ВИРТ&lt;br&gt;БАЗИС&lt;div&gt;&lt;span style=&quot;font-size:11.0pt;font-family:&amp;quot;Calibri&amp;quot;,sans-serif;&lt;br/&gt;mso-fareast-font-family:Calibri;mso-fareast-theme-font:minor-latin;mso-ansi-language:&lt;br/&gt;RU;mso-fareast-language:EN-US;mso-bidi-language:AR-SA&quot;&gt;&lt;a href=&quot;https://confluence.jet.su/display/CS/Dynamix+Enterprise&quot;&gt;https://confluence.jet.su/display/CS/Dynamix+Enterprise&lt;/a&gt;&lt;/span&gt;&lt;/div&gt;" style="rhombus;whiteSpace=wrap;html=1;rounded=1;" parent="1" vertex="1">
          <mxGeometry x="1950" y="-74.5" width="470" height="230" as="geometry" />
        </mxCell>
        <mxCell id="shmqeub3Hfxkf1oyRuU8-22" value="ВИРТ&lt;div&gt;&lt;span style=&quot;font-size:11.0pt;font-family:&lt;br/&gt;&amp;quot;Calibri&amp;quot;,sans-serif;mso-fareast-font-family:Calibri;mso-fareast-theme-font:&lt;br/&gt;minor-latin;mso-ansi-language:EN-US;mso-fareast-language:EN-US;mso-bidi-language:&lt;br/&gt;AR-SA&quot; lang=&quot;EN-US&quot;&gt;VMManager&lt;/span&gt;&lt;/div&gt;&lt;div&gt;&lt;span style=&quot;font-size:11.0pt;font-family:&lt;br/&gt;&amp;quot;Calibri&amp;quot;,sans-serif;mso-fareast-font-family:Calibri;mso-fareast-theme-font:&lt;br/&gt;minor-latin;mso-ansi-language:EN-US;mso-fareast-language:EN-US;mso-bidi-language:&lt;br/&gt;AR-SA&quot; lang=&quot;EN-US&quot;&gt;&lt;span style=&quot;font-size: 11pt;&quot;&gt;&lt;a href=&quot;https://confluence.jet.su/display/CS/VMManager&quot;&gt;https://confluence.jet.su/display/CS/VMManager&lt;/a&gt;&lt;/span&gt;&lt;/span&gt;&lt;/div&gt;" style="rhombus;whiteSpace=wrap;html=1;rounded=1;" parent="1" vertex="1">
          <mxGeometry x="1521" y="432.5" width="400" height="220" as="geometry" />
        </mxCell>
        <mxCell id="shmqeub3Hfxkf1oyRuU8-25" value="&lt;p style=&quot;font-family: &amp;quot;Times New Roman&amp;quot;; font-size: medium;&quot;&gt;микросервисы Istio и Linkerd, сервер авторизации Keycloak,&amp;nbsp;&lt;span style=&quot;background-color: transparent; color: light-dark(rgb(0, 0, 0), rgb(255, 255, 255));&quot;&gt;IPAM netbox&lt;/span&gt;&lt;/p&gt;" style="whiteSpace=wrap;html=1;rounded=1;align=center;" parent="1" vertex="1">
          <mxGeometry x="-560" y="1036" width="300" height="60" as="geometry" />
        </mxCell>
        <mxCell id="vyvly6-AFhtqjjjzrFjk-1" value="CPVK_OSM" style="whiteSpace=wrap;html=1;rounded=1;fontSize=14;" parent="1" vertex="1">
          <mxGeometry x="1808" y="930" width="200" height="60" as="geometry" />
        </mxCell>
        <mxCell id="vyvly6-AFhtqjjjzrFjk-2" value="CPVK_DIR" style="whiteSpace=wrap;html=1;rounded=1;fontSize=14;" parent="1" vertex="1">
          <mxGeometry x="2060" y="1075" width="200" height="60" as="geometry" />
        </mxCell>
        <mxCell id="vyvly6-AFhtqjjjzrFjk-3" value="CPVK_DevSecOps" style="whiteSpace=wrap;html=1;rounded=1;fontSize=14;" parent="1" vertex="1">
          <mxGeometry x="1808" y="1165" width="200" height="60" as="geometry" />
        </mxCell>
        <mxCell id="vyvly6-AFhtqjjjzrFjk-4" value="CPVK_OVAIT" style="whiteSpace=wrap;html=1;rounded=1;fontSize=14;" parent="1" vertex="1">
          <mxGeometry x="2060" y="1279" width="200" height="60" as="geometry" />
        </mxCell>
        <mxCell id="vyvly6-AFhtqjjjzrFjk-5" value="CPVK_Kuberbox" style="whiteSpace=wrap;html=1;rounded=1;fontSize=14;" parent="1" vertex="1">
          <mxGeometry x="1808" y="1365" width="200" height="60" as="geometry" />
        </mxCell>
        <mxCell id="vyvly6-AFhtqjjjzrFjk-6" value="Козлов Александр" style="shape=umlActor;verticalLabelPosition=bottom;verticalAlign=top;html=1;outlineConnect=0;fontSize=14;" parent="1" vertex="1">
          <mxGeometry x="1893" y="835" width="30" height="60" as="geometry" />
        </mxCell>
        <mxCell id="vyvly6-AFhtqjjjzrFjk-7" value="Козлов Александр" style="shape=umlActor;verticalLabelPosition=bottom;verticalAlign=top;html=1;outlineConnect=0;fontSize=14;" parent="1" vertex="1">
          <mxGeometry x="2140" y="960" width="30" height="60" as="geometry" />
        </mxCell>
        <mxCell id="vyvly6-AFhtqjjjzrFjk-9" value="&amp;nbsp; Краснов Александр" style="shape=umlActor;verticalLabelPosition=bottom;verticalAlign=top;html=1;outlineConnect=0;fontSize=14;" parent="1" vertex="1">
          <mxGeometry x="1893" y="1066" width="30" height="60" as="geometry" />
        </mxCell>
        <mxCell id="vyvly6-AFhtqjjjzrFjk-10" value="Власов Сергей&amp;nbsp;" style="shape=umlActor;verticalLabelPosition=bottom;verticalAlign=top;html=1;outlineConnect=0;fontSize=14;" parent="1" vertex="1">
          <mxGeometry x="2140" y="1190" width="30" height="60" as="geometry" />
        </mxCell>
        <mxCell id="vyvly6-AFhtqjjjzrFjk-11" value="Козлов Александр" style="shape=umlActor;verticalLabelPosition=bottom;verticalAlign=top;html=1;outlineConnect=0;fontSize=14;" parent="1" vertex="1">
          <mxGeometry x="1893" y="1274" width="30" height="60" as="geometry" />
        </mxCell>
        <mxCell id="vyvly6-AFhtqjjjzrFjk-13" value="&lt;div&gt;&lt;span style=&quot;background-color: transparent; color: light-dark(rgb(0, 0, 0), rgb(255, 255, 255));&quot;&gt;Клочков Дмитрий&lt;/span&gt;&lt;/div&gt;" style="shape=umlActor;verticalLabelPosition=bottom;verticalAlign=top;html=1;outlineConnect=0;fontSize=14;" parent="1" vertex="1">
          <mxGeometry y="660" width="30" height="60" as="geometry" />
        </mxCell>
        <mxCell id="vyvly6-AFhtqjjjzrFjk-14" value="Голощапов Антон&amp;nbsp;" style="shape=umlActor;verticalLabelPosition=bottom;verticalAlign=top;html=1;outlineConnect=0;" parent="1" vertex="1">
          <mxGeometry x="810" y="-720" width="30" height="60" as="geometry" />
        </mxCell>
        <mxCell id="vyvly6-AFhtqjjjzrFjk-15" value="Марченко Илья" style="shape=umlActor;verticalLabelPosition=bottom;verticalAlign=top;html=1;outlineConnect=0;" parent="1" vertex="1">
          <mxGeometry x="-95" y="-730" width="30" height="60" as="geometry" />
        </mxCell>
        <mxCell id="vyvly6-AFhtqjjjzrFjk-17" value="Шконда Игорь" style="shape=umlActor;verticalLabelPosition=bottom;verticalAlign=top;html=1;outlineConnect=0;" parent="1" vertex="1">
          <mxGeometry x="-425" y="-80" width="30" height="60" as="geometry" />
        </mxCell>
        <mxCell id="vyvly6-AFhtqjjjzrFjk-18" value="Рогожин Алексей" style="shape=umlActor;verticalLabelPosition=bottom;verticalAlign=top;html=1;outlineConnect=0;" parent="1" vertex="1">
          <mxGeometry x="-235" y="-370" width="30" height="60" as="geometry" />
        </mxCell>
        <mxCell id="vyvly6-AFhtqjjjzrFjk-21" value="&lt;h1&gt;DevOps&lt;/h1&gt;" style="rounded=1;whiteSpace=wrap;html=1;" parent="1" vertex="1">
          <mxGeometry x="-640" y="-317.5" width="120" height="60" as="geometry" />
        </mxCell>
        <mxCell id="vyvly6-AFhtqjjjzrFjk-22" value="Пучков Виктор" style="shape=umlActor;verticalLabelPosition=bottom;verticalAlign=top;html=1;outlineConnect=0;" parent="1" vertex="1">
          <mxGeometry x="-595" y="-407.5" width="30" height="60" as="geometry" />
        </mxCell>
        <mxCell id="vyvly6-AFhtqjjjzrFjk-23" value="&lt;h1&gt;DevOps&lt;/h1&gt;" style="rounded=1;whiteSpace=wrap;html=1;" parent="1" vertex="1">
          <mxGeometry x="-430" y="-720" width="120" height="60" as="geometry" />
        </mxCell>
        <mxCell id="vyvly6-AFhtqjjjzrFjk-24" value="Пучков Виктор" style="shape=umlActor;verticalLabelPosition=bottom;verticalAlign=top;html=1;outlineConnect=0;" parent="1" vertex="1">
          <mxGeometry x="-385" y="-810" width="30" height="60" as="geometry" />
        </mxCell>
        <mxCell id="KpwYucl3YDDtUZVu9sAc-8" style="edgeStyle=orthogonalEdgeStyle;rounded=0;orthogonalLoop=1;jettySize=auto;html=1;exitX=1;exitY=0.5;exitDx=0;exitDy=0;entryX=0;entryY=0.5;entryDx=0;entryDy=0;" parent="1" source="KpwYucl3YDDtUZVu9sAc-13" target="KpwYucl3YDDtUZVu9sAc-30" edge="1">
          <mxGeometry relative="1" as="geometry" />
        </mxCell>
        <mxCell id="KpwYucl3YDDtUZVu9sAc-9" style="edgeStyle=orthogonalEdgeStyle;rounded=0;orthogonalLoop=1;jettySize=auto;html=1;exitX=0.999;exitY=0.745;exitDx=0;exitDy=0;entryX=0;entryY=0.5;entryDx=0;entryDy=0;exitPerimeter=0;" parent="1" source="KpwYucl3YDDtUZVu9sAc-13" target="KpwYucl3YDDtUZVu9sAc-34" edge="1">
          <mxGeometry relative="1" as="geometry" />
        </mxCell>
        <mxCell id="KpwYucl3YDDtUZVu9sAc-10" style="edgeStyle=orthogonalEdgeStyle;rounded=0;orthogonalLoop=1;jettySize=auto;html=1;exitX=0.5;exitY=0;exitDx=0;exitDy=0;entryX=0;entryY=0.5;entryDx=0;entryDy=0;" parent="1" source="KpwYucl3YDDtUZVu9sAc-13" target="KpwYucl3YDDtUZVu9sAc-19" edge="1">
          <mxGeometry relative="1" as="geometry" />
        </mxCell>
        <mxCell id="KpwYucl3YDDtUZVu9sAc-11" style="edgeStyle=orthogonalEdgeStyle;rounded=0;orthogonalLoop=1;jettySize=auto;html=1;exitX=0.5;exitY=1;exitDx=0;exitDy=0;entryX=1;entryY=0.5;entryDx=0;entryDy=0;" parent="1" source="KpwYucl3YDDtUZVu9sAc-13" target="KpwYucl3YDDtUZVu9sAc-22" edge="1">
          <mxGeometry relative="1" as="geometry" />
        </mxCell>
        <mxCell id="KpwYucl3YDDtUZVu9sAc-12" style="edgeStyle=orthogonalEdgeStyle;rounded=0;orthogonalLoop=1;jettySize=auto;html=1;entryX=1;entryY=0.5;entryDx=0;entryDy=0;" parent="1" source="KpwYucl3YDDtUZVu9sAc-13" target="KpwYucl3YDDtUZVu9sAc-35" edge="1">
          <mxGeometry relative="1" as="geometry" />
        </mxCell>
        <mxCell id="dLaZOeql_RbiaB47p6mQ-2" style="edgeStyle=orthogonalEdgeStyle;rounded=0;orthogonalLoop=1;jettySize=auto;html=1;exitX=1;exitY=1;exitDx=0;exitDy=0;entryX=0;entryY=0.5;entryDx=0;entryDy=0;" parent="1" source="KpwYucl3YDDtUZVu9sAc-13" target="dLaZOeql_RbiaB47p6mQ-1" edge="1">
          <mxGeometry relative="1" as="geometry" />
        </mxCell>
        <mxCell id="dLaZOeql_RbiaB47p6mQ-27" style="edgeStyle=orthogonalEdgeStyle;rounded=0;orthogonalLoop=1;jettySize=auto;html=1;entryX=1;entryY=0.5;entryDx=0;entryDy=0;" parent="1" source="KpwYucl3YDDtUZVu9sAc-13" target="dLaZOeql_RbiaB47p6mQ-24" edge="1">
          <mxGeometry relative="1" as="geometry" />
        </mxCell>
        <mxCell id="ZUpTjCeXcWNoa8AB_6JW-13" style="edgeStyle=orthogonalEdgeStyle;rounded=0;orthogonalLoop=1;jettySize=auto;html=1;exitX=0;exitY=0;exitDx=0;exitDy=0;entryX=1;entryY=0.5;entryDx=0;entryDy=0;" parent="1" source="KpwYucl3YDDtUZVu9sAc-13" target="ZUpTjCeXcWNoa8AB_6JW-12" edge="1">
          <mxGeometry relative="1" as="geometry" />
        </mxCell>
        <mxCell id="ZUpTjCeXcWNoa8AB_6JW-26" style="edgeStyle=orthogonalEdgeStyle;rounded=0;orthogonalLoop=1;jettySize=auto;html=1;exitX=0.5;exitY=1;exitDx=0;exitDy=0;entryX=1;entryY=0.5;entryDx=0;entryDy=0;" parent="1" source="KpwYucl3YDDtUZVu9sAc-13" target="ZUpTjCeXcWNoa8AB_6JW-23" edge="1">
          <mxGeometry relative="1" as="geometry" />
        </mxCell>
        <mxCell id="KpwYucl3YDDtUZVu9sAc-13" value="&lt;h1&gt;&lt;font style=&quot;font-size: 100px;&quot;&gt;ЦПВК&lt;/font&gt;&lt;/h1&gt;" style="rounded=1;whiteSpace=wrap;html=1;" parent="1" vertex="1">
          <mxGeometry x="5860" y="-163" width="408" height="204" as="geometry" />
        </mxCell>
        <mxCell id="KpwYucl3YDDtUZVu9sAc-14" value="&lt;h1&gt;ОСРВ&lt;/h1&gt;" style="rounded=1;whiteSpace=wrap;html=1;" parent="1" vertex="1">
          <mxGeometry x="2380" y="-717.5" width="120" height="60" as="geometry" />
        </mxCell>
        <mxCell id="KpwYucl3YDDtUZVu9sAc-15" value="" style="edgeStyle=orthogonalEdgeStyle;rounded=0;orthogonalLoop=1;jettySize=auto;html=1;entryX=0;entryY=0.5;entryDx=0;entryDy=0;" parent="1" source="KpwYucl3YDDtUZVu9sAc-19" target="KpwYucl3YDDtUZVu9sAc-89" edge="1">
          <mxGeometry relative="1" as="geometry">
            <mxPoint x="6550" y="-910" as="targetPoint" />
          </mxGeometry>
        </mxCell>
        <mxCell id="KpwYucl3YDDtUZVu9sAc-16" value="" style="edgeStyle=orthogonalEdgeStyle;rounded=0;orthogonalLoop=1;jettySize=auto;html=1;entryX=0;entryY=0.5;entryDx=0;entryDy=0;" parent="1" source="KpwYucl3YDDtUZVu9sAc-19" target="KpwYucl3YDDtUZVu9sAc-90" edge="1">
          <mxGeometry relative="1" as="geometry" />
        </mxCell>
        <mxCell id="KpwYucl3YDDtUZVu9sAc-17" value="" style="edgeStyle=orthogonalEdgeStyle;rounded=0;orthogonalLoop=1;jettySize=auto;html=1;entryX=0;entryY=0.5;entryDx=0;entryDy=0;" parent="1" source="KpwYucl3YDDtUZVu9sAc-19" target="KpwYucl3YDDtUZVu9sAc-93" edge="1">
          <mxGeometry relative="1" as="geometry" />
        </mxCell>
        <mxCell id="KpwYucl3YDDtUZVu9sAc-18" value="" style="edgeStyle=orthogonalEdgeStyle;rounded=0;orthogonalLoop=1;jettySize=auto;html=1;entryX=0;entryY=0.5;entryDx=0;entryDy=0;" parent="1" source="KpwYucl3YDDtUZVu9sAc-19" target="KpwYucl3YDDtUZVu9sAc-94" edge="1">
          <mxGeometry relative="1" as="geometry" />
        </mxCell>
        <mxCell id="ZUpTjCeXcWNoa8AB_6JW-11" style="edgeStyle=orthogonalEdgeStyle;rounded=0;orthogonalLoop=1;jettySize=auto;html=1;exitX=1;exitY=0;exitDx=0;exitDy=0;" parent="1" source="KpwYucl3YDDtUZVu9sAc-19" target="ZUpTjCeXcWNoa8AB_6JW-10" edge="1">
          <mxGeometry relative="1" as="geometry" />
        </mxCell>
        <mxCell id="KpwYucl3YDDtUZVu9sAc-19" value="&lt;h1&gt;&lt;font style=&quot;font-size: 50px;&quot;&gt;ОКР&lt;/font&gt;&lt;/h1&gt;" style="rounded=1;whiteSpace=wrap;html=1;" parent="1" vertex="1">
          <mxGeometry x="6330" y="-750" width="310" height="120" as="geometry" />
        </mxCell>
        <mxCell id="KpwYucl3YDDtUZVu9sAc-21" value="" style="edgeStyle=orthogonalEdgeStyle;rounded=0;orthogonalLoop=1;jettySize=auto;html=1;entryX=1;entryY=0.5;entryDx=0;entryDy=0;" parent="1" source="KpwYucl3YDDtUZVu9sAc-22" target="KpwYucl3YDDtUZVu9sAc-104" edge="1">
          <mxGeometry relative="1" as="geometry" />
        </mxCell>
        <mxCell id="KpwYucl3YDDtUZVu9sAc-22" value="&lt;h1&gt;&lt;font style=&quot;font-size: 50px;&quot;&gt;RHV&lt;/font&gt;&lt;/h1&gt;" style="rounded=1;whiteSpace=wrap;html=1;" parent="1" vertex="1">
          <mxGeometry x="5025" y="31.5" width="300" height="120" as="geometry" />
        </mxCell>
        <mxCell id="KpwYucl3YDDtUZVu9sAc-23" value="" style="edgeStyle=orthogonalEdgeStyle;rounded=0;orthogonalLoop=1;jettySize=auto;html=1;entryX=0;entryY=0.5;entryDx=0;entryDy=0;" parent="1" source="KpwYucl3YDDtUZVu9sAc-30" target="KpwYucl3YDDtUZVu9sAc-37" edge="1">
          <mxGeometry relative="1" as="geometry" />
        </mxCell>
        <mxCell id="KpwYucl3YDDtUZVu9sAc-24" value="" style="edgeStyle=orthogonalEdgeStyle;rounded=0;orthogonalLoop=1;jettySize=auto;html=1;" parent="1" source="KpwYucl3YDDtUZVu9sAc-30" target="KpwYucl3YDDtUZVu9sAc-39" edge="1">
          <mxGeometry relative="1" as="geometry" />
        </mxCell>
        <mxCell id="KpwYucl3YDDtUZVu9sAc-25" value="" style="edgeStyle=orthogonalEdgeStyle;rounded=0;orthogonalLoop=1;jettySize=auto;html=1;entryX=0;entryY=0.5;entryDx=0;entryDy=0;" parent="1" source="KpwYucl3YDDtUZVu9sAc-30" target="KpwYucl3YDDtUZVu9sAc-42" edge="1">
          <mxGeometry relative="1" as="geometry" />
        </mxCell>
        <mxCell id="KpwYucl3YDDtUZVu9sAc-26" value="" style="edgeStyle=orthogonalEdgeStyle;rounded=0;orthogonalLoop=1;jettySize=auto;html=1;entryX=0;entryY=0.5;entryDx=0;entryDy=0;" parent="1" source="KpwYucl3YDDtUZVu9sAc-30" target="KpwYucl3YDDtUZVu9sAc-98" edge="1">
          <mxGeometry relative="1" as="geometry">
            <Array as="points">
              <mxPoint x="6920" y="-60" />
              <mxPoint x="6920" y="445" />
            </Array>
          </mxGeometry>
        </mxCell>
        <mxCell id="dLaZOeql_RbiaB47p6mQ-53" style="edgeStyle=orthogonalEdgeStyle;rounded=0;orthogonalLoop=1;jettySize=auto;html=1;entryX=0;entryY=0.5;entryDx=0;entryDy=0;" parent="1" source="KpwYucl3YDDtUZVu9sAc-30" target="dLaZOeql_RbiaB47p6mQ-51" edge="1">
          <mxGeometry relative="1" as="geometry">
            <Array as="points">
              <mxPoint x="6920" y="-60" />
              <mxPoint x="6920" y="912" />
            </Array>
          </mxGeometry>
        </mxCell>
        <mxCell id="dLaZOeql_RbiaB47p6mQ-56" style="edgeStyle=orthogonalEdgeStyle;rounded=0;orthogonalLoop=1;jettySize=auto;html=1;entryX=0;entryY=0.5;entryDx=0;entryDy=0;" parent="1" source="KpwYucl3YDDtUZVu9sAc-30" target="dLaZOeql_RbiaB47p6mQ-54" edge="1">
          <mxGeometry relative="1" as="geometry">
            <Array as="points">
              <mxPoint x="6920" y="-60" />
              <mxPoint x="6920" y="1098" />
            </Array>
          </mxGeometry>
        </mxCell>
        <mxCell id="ZUpTjCeXcWNoa8AB_6JW-34" style="edgeStyle=orthogonalEdgeStyle;rounded=0;orthogonalLoop=1;jettySize=auto;html=1;entryX=0;entryY=0.5;entryDx=0;entryDy=0;" parent="1" source="KpwYucl3YDDtUZVu9sAc-30" target="ZUpTjCeXcWNoa8AB_6JW-29" edge="1">
          <mxGeometry relative="1" as="geometry">
            <Array as="points">
              <mxPoint x="6920" y="-60" />
              <mxPoint x="6920" y="1345" />
            </Array>
          </mxGeometry>
        </mxCell>
        <mxCell id="KpwYucl3YDDtUZVu9sAc-30" value="&lt;h1&gt;&lt;font style=&quot;font-size: 50px;&quot;&gt;JetRuLab&lt;/font&gt;&lt;/h1&gt;" style="rounded=1;whiteSpace=wrap;html=1;" parent="1" vertex="1">
          <mxGeometry x="6570" y="-120" width="300" height="120" as="geometry" />
        </mxCell>
        <mxCell id="dLaZOeql_RbiaB47p6mQ-17" style="edgeStyle=orthogonalEdgeStyle;rounded=0;orthogonalLoop=1;jettySize=auto;html=1;" parent="1" source="KpwYucl3YDDtUZVu9sAc-34" target="KpwYucl3YDDtUZVu9sAc-108" edge="1">
          <mxGeometry relative="1" as="geometry" />
        </mxCell>
        <mxCell id="dLaZOeql_RbiaB47p6mQ-18" style="edgeStyle=orthogonalEdgeStyle;rounded=0;orthogonalLoop=1;jettySize=auto;html=1;" parent="1" source="KpwYucl3YDDtUZVu9sAc-34" target="dLaZOeql_RbiaB47p6mQ-13" edge="1">
          <mxGeometry relative="1" as="geometry" />
        </mxCell>
        <mxCell id="dLaZOeql_RbiaB47p6mQ-19" style="edgeStyle=orthogonalEdgeStyle;rounded=0;orthogonalLoop=1;jettySize=auto;html=1;entryX=0.5;entryY=0;entryDx=0;entryDy=0;" parent="1" source="KpwYucl3YDDtUZVu9sAc-34" target="dLaZOeql_RbiaB47p6mQ-9" edge="1">
          <mxGeometry relative="1" as="geometry" />
        </mxCell>
        <mxCell id="dLaZOeql_RbiaB47p6mQ-20" style="edgeStyle=orthogonalEdgeStyle;rounded=0;orthogonalLoop=1;jettySize=auto;html=1;entryX=0.5;entryY=1;entryDx=0;entryDy=0;" parent="1" source="KpwYucl3YDDtUZVu9sAc-34" target="KpwYucl3YDDtUZVu9sAc-105" edge="1">
          <mxGeometry relative="1" as="geometry" />
        </mxCell>
        <mxCell id="dLaZOeql_RbiaB47p6mQ-21" style="edgeStyle=orthogonalEdgeStyle;rounded=0;orthogonalLoop=1;jettySize=auto;html=1;entryX=0.5;entryY=1;entryDx=0;entryDy=0;" parent="1" source="KpwYucl3YDDtUZVu9sAc-34" target="KpwYucl3YDDtUZVu9sAc-106" edge="1">
          <mxGeometry relative="1" as="geometry" />
        </mxCell>
        <mxCell id="dLaZOeql_RbiaB47p6mQ-22" style="edgeStyle=orthogonalEdgeStyle;rounded=0;orthogonalLoop=1;jettySize=auto;html=1;entryX=0.5;entryY=1;entryDx=0;entryDy=0;" parent="1" source="KpwYucl3YDDtUZVu9sAc-34" target="KpwYucl3YDDtUZVu9sAc-109" edge="1">
          <mxGeometry relative="1" as="geometry" />
        </mxCell>
        <mxCell id="dLaZOeql_RbiaB47p6mQ-23" style="edgeStyle=orthogonalEdgeStyle;rounded=0;orthogonalLoop=1;jettySize=auto;html=1;entryX=0;entryY=0.5;entryDx=0;entryDy=0;" parent="1" source="KpwYucl3YDDtUZVu9sAc-34" target="KpwYucl3YDDtUZVu9sAc-107" edge="1">
          <mxGeometry relative="1" as="geometry" />
        </mxCell>
        <mxCell id="KpwYucl3YDDtUZVu9sAc-34" value="&lt;h1&gt;&lt;font style=&quot;font-size: 50px;&quot;&gt;StandCloud&lt;/font&gt;&lt;/h1&gt;" style="rounded=1;whiteSpace=wrap;html=1;" parent="1" vertex="1">
          <mxGeometry x="6530" y="2224" width="300" height="120" as="geometry" />
        </mxCell>
        <mxCell id="ZUpTjCeXcWNoa8AB_6JW-3" value="" style="edgeStyle=orthogonalEdgeStyle;rounded=0;orthogonalLoop=1;jettySize=auto;html=1;" parent="1" source="KpwYucl3YDDtUZVu9sAc-35" target="ZUpTjCeXcWNoa8AB_6JW-2" edge="1">
          <mxGeometry relative="1" as="geometry" />
        </mxCell>
        <mxCell id="ZUpTjCeXcWNoa8AB_6JW-5" value="" style="edgeStyle=orthogonalEdgeStyle;rounded=0;orthogonalLoop=1;jettySize=auto;html=1;" parent="1" source="KpwYucl3YDDtUZVu9sAc-35" target="ZUpTjCeXcWNoa8AB_6JW-4" edge="1">
          <mxGeometry relative="1" as="geometry" />
        </mxCell>
        <mxCell id="ZUpTjCeXcWNoa8AB_6JW-8" style="edgeStyle=orthogonalEdgeStyle;rounded=0;orthogonalLoop=1;jettySize=auto;html=1;entryX=1;entryY=0.5;entryDx=0;entryDy=0;" parent="1" source="KpwYucl3YDDtUZVu9sAc-35" target="ZUpTjCeXcWNoa8AB_6JW-6" edge="1">
          <mxGeometry relative="1" as="geometry" />
        </mxCell>
        <mxCell id="ZUpTjCeXcWNoa8AB_6JW-71" value="" style="edgeStyle=orthogonalEdgeStyle;rounded=0;orthogonalLoop=1;jettySize=auto;html=1;entryX=1;entryY=0.5;entryDx=0;entryDy=0;" parent="1" source="KpwYucl3YDDtUZVu9sAc-35" target="ZUpTjCeXcWNoa8AB_6JW-70" edge="1">
          <mxGeometry relative="1" as="geometry" />
        </mxCell>
        <mxCell id="KpwYucl3YDDtUZVu9sAc-35" value="&lt;h1&gt;&lt;font style=&quot;font-size: 33px;&quot;&gt;ОСХД&lt;/font&gt;&lt;/h1&gt;" style="rounded=1;whiteSpace=wrap;html=1;" parent="1" vertex="1">
          <mxGeometry x="5095" y="-591" width="300" height="120" as="geometry" />
        </mxCell>
        <mxCell id="KpwYucl3YDDtUZVu9sAc-36" value="" style="edgeStyle=orthogonalEdgeStyle;rounded=0;orthogonalLoop=1;jettySize=auto;html=1;fontSize=14;align=center;" parent="1" source="KpwYucl3YDDtUZVu9sAc-37" target="KpwYucl3YDDtUZVu9sAc-58" edge="1">
          <mxGeometry relative="1" as="geometry" />
        </mxCell>
        <mxCell id="KpwYucl3YDDtUZVu9sAc-37" value="&lt;div style=&quot;line-height: 140%;&quot;&gt;&lt;p style=&quot;color: rgb(0, 0, 0); font-family: &amp;quot;Times New Roman&amp;quot;; font-style: normal; font-variant-ligatures: normal; font-variant-caps: normal; font-weight: 400; letter-spacing: normal; orphans: 2; text-indent: 0px; text-transform: none; widows: 2; word-spacing: 0px; -webkit-text-stroke-width: 0px; white-space: normal; text-decoration-thickness: initial; text-decoration-style: initial; text-decoration-color: initial; line-height: 120%;&quot;&gt;Постоянная часть:&amp;nbsp;&lt;span style=&quot;background-color: transparent; color: light-dark(rgb(0, 0, 0), rgb(237, 237, 237));&quot;&gt;Серверы х86 - 4 шт.,&amp;nbsp;&lt;/span&gt;&lt;span style=&quot;background-color: transparent; color: light-dark(rgb(0, 0, 0), rgb(237, 237, 237));&quot;&gt;Aquarius&lt;/span&gt;&lt;/p&gt;&lt;/div&gt;" style="whiteSpace=wrap;html=1;rounded=1;align=center;gradientColor=none;fontSize=14;" parent="1" vertex="1">
          <mxGeometry x="6970" y="-330" width="300" height="60" as="geometry" />
        </mxCell>
        <mxCell id="KpwYucl3YDDtUZVu9sAc-38" value="" style="edgeStyle=orthogonalEdgeStyle;rounded=0;orthogonalLoop=1;jettySize=auto;html=1;fontSize=14;align=center;" parent="1" source="KpwYucl3YDDtUZVu9sAc-39" target="KpwYucl3YDDtUZVu9sAc-50" edge="1">
          <mxGeometry relative="1" as="geometry" />
        </mxCell>
        <mxCell id="KpwYucl3YDDtUZVu9sAc-39" value="&lt;p style=&quot;color: rgb(0, 0, 0); font-family: &amp;quot;Times New Roman&amp;quot;; font-style: normal; font-variant-ligatures: normal; font-variant-caps: normal; font-weight: 400; letter-spacing: normal; orphans: 2; text-indent: 0px; text-transform: none; widows: 2; word-spacing: 0px; -webkit-text-stroke-width: 0px; white-space: normal; text-decoration-thickness: initial; text-decoration-style: initial; text-decoration-color: initial;&quot;&gt;Переменная часть:&amp;nbsp;&lt;span style=&quot;color: light-dark(rgb(0, 0, 0), rgb(237, 237, 237)); background-color: transparent;&quot;&gt;Серверы х86 - 4 шт.,&amp;nbsp;&lt;/span&gt;&lt;span style=&quot;background-color: transparent; color: light-dark(rgb(0, 0, 0), rgb(237, 237, 237));&quot;&gt;ICL,&amp;nbsp;&lt;/span&gt;&lt;span style=&quot;background-color: transparent; color: light-dark(rgb(0, 0, 0), rgb(237, 237, 237));&quot;&gt;Ядро,&lt;/span&gt;&lt;span style=&quot;background-color: transparent; color: light-dark(rgb(0, 0, 0), rgb(237, 237, 237));&quot;&gt;&amp;nbsp;Депо,&lt;/span&gt;&lt;span style=&quot;background-color: transparent; color: light-dark(rgb(0, 0, 0), rgb(237, 237, 237));&quot;&gt;&amp;nbsp;Ф+&lt;/span&gt;&lt;/p&gt;" style="whiteSpace=wrap;html=1;rounded=1;align=center;fontSize=14;" parent="1" vertex="1">
          <mxGeometry x="6970" y="-91" width="300" height="60" as="geometry" />
        </mxCell>
        <mxCell id="KpwYucl3YDDtUZVu9sAc-40" value="" style="edgeStyle=orthogonalEdgeStyle;rounded=0;orthogonalLoop=1;jettySize=auto;html=1;entryX=0;entryY=0.5;entryDx=0;entryDy=0;fontSize=14;align=center;" parent="1" source="KpwYucl3YDDtUZVu9sAc-42" target="KpwYucl3YDDtUZVu9sAc-43" edge="1">
          <mxGeometry relative="1" as="geometry" />
        </mxCell>
        <mxCell id="KpwYucl3YDDtUZVu9sAc-41" value="" style="edgeStyle=orthogonalEdgeStyle;rounded=0;orthogonalLoop=1;jettySize=auto;html=1;entryX=0;entryY=0.5;entryDx=0;entryDy=0;fontSize=14;align=center;" parent="1" source="KpwYucl3YDDtUZVu9sAc-42" target="KpwYucl3YDDtUZVu9sAc-44" edge="1">
          <mxGeometry relative="1" as="geometry" />
        </mxCell>
        <mxCell id="KpwYucl3YDDtUZVu9sAc-42" value="&lt;p style=&quot;color: rgb(0, 0, 0); font-family: &amp;quot;Times New Roman&amp;quot;; font-style: normal; font-variant-ligatures: normal; font-variant-caps: normal; font-weight: 400; letter-spacing: normal; orphans: 2; text-indent: 0px; text-transform: none; widows: 2; word-spacing: 0px; -webkit-text-stroke-width: 0px; white-space: normal; text-decoration-thickness: initial; text-decoration-style: initial; text-decoration-color: initial;&quot;&gt;Моноблоки и тонкие клиенты:&amp;nbsp;&lt;span style=&quot;color: light-dark(rgb(0, 0, 0), rgb(237, 237, 237)); background-color: transparent;&quot;&gt;Tonk,&amp;nbsp;&lt;/span&gt;&lt;span style=&quot;background-color: transparent; color: light-dark(rgb(0, 0, 0), rgb(237, 237, 237));&quot;&gt;GetMobit,&amp;nbsp;&lt;/span&gt;&lt;span style=&quot;background-color: transparent; color: light-dark(rgb(0, 0, 0), rgb(237, 237, 237));&quot;&gt;ICL,&lt;/span&gt;&lt;span style=&quot;background-color: transparent; color: light-dark(rgb(0, 0, 0), rgb(237, 237, 237));&quot;&gt;&amp;nbsp;Depo,&amp;nbsp;&lt;/span&gt;&lt;span style=&quot;background-color: transparent; color: light-dark(rgb(0, 0, 0), rgb(255, 255, 255));&quot;&gt;Aquarius&lt;/span&gt;&lt;/p&gt;" style="whiteSpace=wrap;html=1;rounded=1;align=center;fontSize=14;" parent="1" vertex="1">
          <mxGeometry x="6970" y="130" width="300" height="60" as="geometry" />
        </mxCell>
        <mxCell id="KpwYucl3YDDtUZVu9sAc-43" value="&lt;p style=&quot;color: rgb(0, 0, 0); font-family: &amp;quot;Times New Roman&amp;quot;; font-style: normal; font-variant-ligatures: normal; font-variant-caps: normal; font-weight: 400; letter-spacing: normal; orphans: 2; text-indent: 0px; text-transform: none; widows: 2; word-spacing: 0px; -webkit-text-stroke-width: 0px; white-space: normal; text-decoration-thickness: initial; text-decoration-style: initial; text-decoration-color: initial;&quot;&gt;СХД FC/NFS,&amp;nbsp;&lt;span style=&quot;color: light-dark(rgb(0, 0, 0), rgb(237, 237, 237)); background-color: transparent;&quot;&gt;Qtech, ICL, F+, AeroDisk, Yadro&lt;/span&gt;&lt;/p&gt;" style="whiteSpace=wrap;html=1;rounded=1;align=center;fontSize=14;" parent="1" vertex="1">
          <mxGeometry x="7330" y="180" width="300" height="60" as="geometry" />
        </mxCell>
        <mxCell id="KpwYucl3YDDtUZVu9sAc-44" value="&lt;p style=&quot;font-family: &amp;quot;Times New Roman&amp;quot;;&quot;&gt;ОС: Astra, Alt, RedOS,&amp;nbsp;&lt;span style=&quot;background-color: transparent; color: light-dark(rgb(0, 0, 0), rgb(255, 255, 255));&quot;&gt;KasperskyOS, СберОС, АльтерОС&lt;/span&gt;&lt;/p&gt;&lt;p style=&quot;font-family: &amp;quot;Times New Roman&amp;quot;;&quot;&gt;&lt;span style=&quot;background-color: transparent; color: light-dark(rgb(0, 0, 0), rgb(255, 255, 255));&quot;&gt;ПО: МойОфис, Р7-Офис, Автограф, MasterPDF, АСМОграф&lt;/span&gt;&lt;/p&gt;" style="whiteSpace=wrap;html=1;rounded=1;fontSize=14;align=center;" parent="1" vertex="1">
          <mxGeometry x="7330" y="60" width="300" height="90" as="geometry" />
        </mxCell>
        <mxCell id="KpwYucl3YDDtUZVu9sAc-45" value="" style="edgeStyle=orthogonalEdgeStyle;rounded=0;orthogonalLoop=1;jettySize=auto;html=1;fontSize=14;align=center;" parent="1" source="KpwYucl3YDDtUZVu9sAc-50" target="KpwYucl3YDDtUZVu9sAc-51" edge="1">
          <mxGeometry relative="1" as="geometry" />
        </mxCell>
        <mxCell id="KpwYucl3YDDtUZVu9sAc-46" value="" style="edgeStyle=orthogonalEdgeStyle;rounded=0;orthogonalLoop=1;jettySize=auto;html=1;fontSize=14;align=center;" parent="1" source="KpwYucl3YDDtUZVu9sAc-50" target="KpwYucl3YDDtUZVu9sAc-51" edge="1">
          <mxGeometry relative="1" as="geometry" />
        </mxCell>
        <mxCell id="KpwYucl3YDDtUZVu9sAc-47" value="" style="edgeStyle=orthogonalEdgeStyle;rounded=0;orthogonalLoop=1;jettySize=auto;html=1;fontSize=14;align=center;" parent="1" source="KpwYucl3YDDtUZVu9sAc-50" target="KpwYucl3YDDtUZVu9sAc-51" edge="1">
          <mxGeometry relative="1" as="geometry" />
        </mxCell>
        <mxCell id="KpwYucl3YDDtUZVu9sAc-48" value="" style="edgeStyle=orthogonalEdgeStyle;rounded=0;orthogonalLoop=1;jettySize=auto;html=1;fontSize=14;align=center;" parent="1" source="KpwYucl3YDDtUZVu9sAc-50" target="KpwYucl3YDDtUZVu9sAc-51" edge="1">
          <mxGeometry relative="1" as="geometry" />
        </mxCell>
        <mxCell id="KpwYucl3YDDtUZVu9sAc-49" style="edgeStyle=orthogonalEdgeStyle;rounded=0;orthogonalLoop=1;jettySize=auto;html=1;exitX=1;exitY=0.5;exitDx=0;exitDy=0;entryX=0;entryY=0.5;entryDx=0;entryDy=0;fontSize=14;align=center;" parent="1" source="KpwYucl3YDDtUZVu9sAc-50" target="KpwYucl3YDDtUZVu9sAc-52" edge="1">
          <mxGeometry relative="1" as="geometry" />
        </mxCell>
        <mxCell id="KpwYucl3YDDtUZVu9sAc-50" value="vCore, Горизонт-ВС" style="whiteSpace=wrap;html=1;rounded=1;fontSize=14;align=center;" parent="1" vertex="1">
          <mxGeometry x="7330" y="-91" width="200" height="60" as="geometry" />
        </mxCell>
        <mxCell id="KpwYucl3YDDtUZVu9sAc-51" value="Роса, Astra, Alt, RedOS" style="whiteSpace=wrap;html=1;rounded=1;fontSize=14;align=center;" parent="1" vertex="1">
          <mxGeometry x="7650" y="-141" width="200" height="60" as="geometry" />
        </mxCell>
        <mxCell id="KpwYucl3YDDtUZVu9sAc-52" value="&lt;span style=&quot;font-family: &amp;quot;Times New Roman&amp;quot;;&quot;&gt;&lt;font&gt;Скала-Р, ruPost, Mind, Red Adm, SambaDC, Deckhouse, PostgresPro, Tantor&lt;/font&gt;&lt;/span&gt;" style="whiteSpace=wrap;html=1;rounded=1;fontSize=14;align=center;" parent="1" vertex="1">
          <mxGeometry x="7650" y="-41" width="300" height="60" as="geometry" />
        </mxCell>
        <mxCell id="KpwYucl3YDDtUZVu9sAc-53" value="Большаков Иван" style="shape=umlActor;verticalLabelPosition=bottom;verticalAlign=top;html=1;outlineConnect=0;" parent="1" vertex="1">
          <mxGeometry x="6705" y="-201" width="30" height="60" as="geometry" />
        </mxCell>
        <mxCell id="KpwYucl3YDDtUZVu9sAc-54" value="" style="edgeStyle=orthogonalEdgeStyle;rounded=0;orthogonalLoop=1;jettySize=auto;html=1;entryX=0;entryY=0.5;entryDx=0;entryDy=0;fontSize=14;align=center;" parent="1" source="KpwYucl3YDDtUZVu9sAc-58" target="KpwYucl3YDDtUZVu9sAc-59" edge="1">
          <mxGeometry relative="1" as="geometry" />
        </mxCell>
        <mxCell id="KpwYucl3YDDtUZVu9sAc-55" value="" style="edgeStyle=orthogonalEdgeStyle;rounded=0;orthogonalLoop=1;jettySize=auto;html=1;fontSize=14;align=center;" parent="1" source="KpwYucl3YDDtUZVu9sAc-58" target="KpwYucl3YDDtUZVu9sAc-60" edge="1">
          <mxGeometry relative="1" as="geometry" />
        </mxCell>
        <mxCell id="KpwYucl3YDDtUZVu9sAc-56" value="" style="edgeStyle=orthogonalEdgeStyle;rounded=0;orthogonalLoop=1;jettySize=auto;html=1;fontSize=14;align=center;" parent="1" source="KpwYucl3YDDtUZVu9sAc-58" target="KpwYucl3YDDtUZVu9sAc-60" edge="1">
          <mxGeometry relative="1" as="geometry" />
        </mxCell>
        <mxCell id="KpwYucl3YDDtUZVu9sAc-57" style="edgeStyle=orthogonalEdgeStyle;rounded=0;orthogonalLoop=1;jettySize=auto;html=1;exitX=1;exitY=0.5;exitDx=0;exitDy=0;entryX=0;entryY=0.5;entryDx=0;entryDy=0;fontSize=14;align=center;" parent="1" source="KpwYucl3YDDtUZVu9sAc-58" target="KpwYucl3YDDtUZVu9sAc-61" edge="1">
          <mxGeometry relative="1" as="geometry" />
        </mxCell>
        <mxCell id="KpwYucl3YDDtUZVu9sAc-58" value="&lt;span style=&quot;color: rgb(0, 0, 0); font-family: &amp;quot;Times New Roman&amp;quot;; font-style: normal; font-variant-ligatures: normal; font-variant-caps: normal; font-weight: 400; letter-spacing: normal; orphans: 2; text-indent: 0px; text-transform: none; widows: 2; word-spacing: 0px; -webkit-text-stroke-width: 0px; white-space: normal; text-decoration-thickness: initial; text-decoration-style: initial; text-decoration-color: initial; float: none; display: inline !important;&quot;&gt;zVirt, SpaceVM, Брест, vSphere&lt;/span&gt;" style="whiteSpace=wrap;html=1;rounded=1;gradientColor=none;fontSize=14;align=center;" parent="1" vertex="1">
          <mxGeometry x="7330" y="-330" width="200" height="60" as="geometry" />
        </mxCell>
        <mxCell id="KpwYucl3YDDtUZVu9sAc-59" value="&lt;span style=&quot;color: rgb(0, 0, 0); font-family: &amp;quot;Times New Roman&amp;quot;; font-style: normal; font-variant-ligatures: normal; font-variant-caps: normal; font-weight: 400; letter-spacing: normal; orphans: 2; text-indent: 0px; text-transform: none; widows: 2; word-spacing: 0px; -webkit-text-stroke-width: 0px; white-space: normal; text-decoration-thickness: initial; text-decoration-style: initial; text-decoration-color: initial; float: none; display: inline !important;&quot;&gt;ruBackup, Киберпротект, WorkMail, ALD Pro, Communigate, Termidesk&lt;/span&gt;" style="whiteSpace=wrap;html=1;rounded=1;gradientColor=none;fontSize=14;align=center;" parent="1" vertex="1">
          <mxGeometry x="7650" y="-420" width="200" height="60" as="geometry" />
        </mxCell>
        <mxCell id="KpwYucl3YDDtUZVu9sAc-60" value="&lt;span style=&quot;color: rgb(0, 0, 0); font-family: &amp;quot;Times New Roman&amp;quot;; font-style: normal; font-variant-ligatures: normal; font-variant-caps: normal; font-weight: 400; letter-spacing: normal; orphans: 2; text-indent: 0px; text-transform: none; widows: 2; word-spacing: 0px; -webkit-text-stroke-width: 0px; white-space: normal; text-decoration-thickness: initial; text-decoration-style: initial; text-decoration-color: initial; float: none; display: inline !important;&quot;&gt;Astra, Alt, RedOS, Windows&lt;/span&gt;" style="whiteSpace=wrap;html=1;rounded=1;gradientColor=none;fontSize=14;align=center;" parent="1" vertex="1">
          <mxGeometry x="7650" y="-330" width="200" height="60" as="geometry" />
        </mxCell>
        <mxCell id="KpwYucl3YDDtUZVu9sAc-61" value="&lt;span style=&quot;color: rgb(0, 0, 0); font-family: &amp;quot;Times New Roman&amp;quot;; font-style: normal; font-variant-ligatures: normal; font-variant-caps: normal; font-weight: 400; letter-spacing: normal; orphans: 2; text-indent: 0px; text-transform: none; widows: 2; word-spacing: 0px; -webkit-text-stroke-width: 0px; white-space: normal; text-decoration-thickness: initial; text-decoration-style: initial; text-decoration-color: initial; float: none; display: inline !important;&quot;&gt;Штурвал, Пульт&lt;/span&gt;" style="whiteSpace=wrap;html=1;rounded=1;gradientColor=none;fontSize=14;align=center;" parent="1" vertex="1">
          <mxGeometry x="7650" y="-240" width="200" height="60" as="geometry" />
        </mxCell>
        <mxCell id="KpwYucl3YDDtUZVu9sAc-78" value="&lt;div style=&quot;text-align: start;&quot;&gt;&lt;font face=&quot;Calibri, sans-serif, serif, EmojiFont&quot; color=&quot;#212121&quot;&gt;&lt;span style=&quot;font-size: 14.6667px; text-wrap-mode: wrap; background-color: rgb(255, 255, 255);&quot;&gt;Капешин Владимир&lt;/span&gt;&lt;/font&gt;&lt;/div&gt;" style="shape=umlActor;verticalLabelPosition=bottom;verticalAlign=top;html=1;outlineConnect=0;fontSize=14;" parent="1" vertex="1">
          <mxGeometry x="6620" y="2105" width="30" height="60" as="geometry" />
        </mxCell>
        <mxCell id="KpwYucl3YDDtUZVu9sAc-89" value="SAP HANA" style="whiteSpace=wrap;html=1;rounded=1;" parent="1" vertex="1">
          <mxGeometry x="6771" y="-797.5" width="120" height="60" as="geometry" />
        </mxCell>
        <mxCell id="KpwYucl3YDDtUZVu9sAc-90" value="SPARC" style="whiteSpace=wrap;html=1;rounded=1;" parent="1" vertex="1">
          <mxGeometry x="6771" y="-702.5" width="120" height="60" as="geometry" />
        </mxCell>
        <mxCell id="KpwYucl3YDDtUZVu9sAc-91" value="" style="edgeStyle=orthogonalEdgeStyle;rounded=0;orthogonalLoop=1;jettySize=auto;html=1;" parent="1" source="KpwYucl3YDDtUZVu9sAc-93" target="KpwYucl3YDDtUZVu9sAc-95" edge="1">
          <mxGeometry relative="1" as="geometry" />
        </mxCell>
        <mxCell id="KpwYucl3YDDtUZVu9sAc-92" style="edgeStyle=orthogonalEdgeStyle;rounded=0;orthogonalLoop=1;jettySize=auto;html=1;exitX=1;exitY=0.5;exitDx=0;exitDy=0;entryX=0;entryY=0.5;entryDx=0;entryDy=0;" parent="1" source="KpwYucl3YDDtUZVu9sAc-93" target="KpwYucl3YDDtUZVu9sAc-96" edge="1">
          <mxGeometry relative="1" as="geometry" />
        </mxCell>
        <mxCell id="KpwYucl3YDDtUZVu9sAc-93" value="IBM Power" style="whiteSpace=wrap;html=1;rounded=1;" parent="1" vertex="1">
          <mxGeometry x="6771" y="-607.5" width="120" height="60" as="geometry" />
        </mxCell>
        <mxCell id="KpwYucl3YDDtUZVu9sAc-94" value="MongoDB" style="whiteSpace=wrap;html=1;rounded=1;" parent="1" vertex="1">
          <mxGeometry x="6771" y="-892.5" width="120" height="60" as="geometry" />
        </mxCell>
        <mxCell id="KpwYucl3YDDtUZVu9sAc-95" value="Power P770" style="whiteSpace=wrap;html=1;rounded=1;" parent="1" vertex="1">
          <mxGeometry x="7020" y="-650" width="120" height="60" as="geometry" />
        </mxCell>
        <mxCell id="KpwYucl3YDDtUZVu9sAc-96" value="Power 9 S922" style="whiteSpace=wrap;html=1;rounded=1;" parent="1" vertex="1">
          <mxGeometry x="7020" y="-570" width="120" height="60" as="geometry" />
        </mxCell>
        <mxCell id="KpwYucl3YDDtUZVu9sAc-97" value="Клочков Дмитрий" style="shape=umlActor;verticalLabelPosition=bottom;verticalAlign=top;html=1;outlineConnect=0;" parent="1" vertex="1">
          <mxGeometry x="6820" y="-980" width="30" height="60" as="geometry" />
        </mxCell>
        <mxCell id="dLaZOeql_RbiaB47p6mQ-47" style="edgeStyle=orthogonalEdgeStyle;rounded=0;orthogonalLoop=1;jettySize=auto;html=1;entryX=0;entryY=0.5;entryDx=0;entryDy=0;" parent="1" source="KpwYucl3YDDtUZVu9sAc-98" target="dLaZOeql_RbiaB47p6mQ-44" edge="1">
          <mxGeometry relative="1" as="geometry" />
        </mxCell>
        <mxCell id="dLaZOeql_RbiaB47p6mQ-48" style="edgeStyle=orthogonalEdgeStyle;rounded=0;orthogonalLoop=1;jettySize=auto;html=1;entryX=0;entryY=0.5;entryDx=0;entryDy=0;" parent="1" source="KpwYucl3YDDtUZVu9sAc-98" target="dLaZOeql_RbiaB47p6mQ-45" edge="1">
          <mxGeometry relative="1" as="geometry" />
        </mxCell>
        <mxCell id="dLaZOeql_RbiaB47p6mQ-49" style="edgeStyle=orthogonalEdgeStyle;rounded=0;orthogonalLoop=1;jettySize=auto;html=1;entryX=0;entryY=0.5;entryDx=0;entryDy=0;" parent="1" source="KpwYucl3YDDtUZVu9sAc-98" target="dLaZOeql_RbiaB47p6mQ-46" edge="1">
          <mxGeometry relative="1" as="geometry" />
        </mxCell>
        <mxCell id="KpwYucl3YDDtUZVu9sAc-98" value="VK Mail" style="whiteSpace=wrap;html=1;rounded=1;" parent="1" vertex="1">
          <mxGeometry x="7028" y="415" width="120" height="60" as="geometry" />
        </mxCell>
        <mxCell id="KpwYucl3YDDtUZVu9sAc-99" value="Соболевский Александр" style="shape=umlActor;verticalLabelPosition=bottom;verticalAlign=top;html=1;outlineConnect=0;" parent="1" vertex="1">
          <mxGeometry x="7073" y="320" width="30" height="60" as="geometry" />
        </mxCell>
        <mxCell id="KpwYucl3YDDtUZVu9sAc-104" value="&lt;p style=&quot;font-family: &amp;quot;Times New Roman&amp;quot;; font-size: medium;&quot;&gt;микросервисы Istio и Linkerd, сервер авторизации Keycloak,&amp;nbsp;&lt;span style=&quot;background-color: transparent; color: light-dark(rgb(0, 0, 0), rgb(255, 255, 255));&quot;&gt;IPAM netbox&lt;/span&gt;&lt;/p&gt;" style="whiteSpace=wrap;html=1;rounded=1;align=center;" parent="1" vertex="1">
          <mxGeometry x="4560" y="61.5" width="300" height="60" as="geometry" />
        </mxCell>
        <mxCell id="KpwYucl3YDDtUZVu9sAc-105" value="CPVK_OSM" style="whiteSpace=wrap;html=1;rounded=1;fontSize=14;" parent="1" vertex="1">
          <mxGeometry x="6940" y="2019" width="200" height="60" as="geometry" />
        </mxCell>
        <mxCell id="KpwYucl3YDDtUZVu9sAc-106" value="CPVK_DIR" style="whiteSpace=wrap;html=1;rounded=1;fontSize=14;" parent="1" vertex="1">
          <mxGeometry x="7170" y="2019" width="200" height="60" as="geometry" />
        </mxCell>
        <mxCell id="KpwYucl3YDDtUZVu9sAc-107" value="CPVK_DevSecOps" style="whiteSpace=wrap;html=1;rounded=1;fontSize=14;" parent="1" vertex="1">
          <mxGeometry x="7660" y="2254" width="200" height="60" as="geometry" />
        </mxCell>
        <mxCell id="KpwYucl3YDDtUZVu9sAc-108" value="CPVK_OVAIT" style="whiteSpace=wrap;html=1;rounded=1;fontSize=14;" parent="1" vertex="1">
          <mxGeometry x="6941" y="2378" width="200" height="60" as="geometry" />
        </mxCell>
        <mxCell id="KpwYucl3YDDtUZVu9sAc-109" value="CPVK_Kuberbox" style="whiteSpace=wrap;html=1;rounded=1;fontSize=14;" parent="1" vertex="1">
          <mxGeometry x="7400" y="2019" width="200" height="60" as="geometry" />
        </mxCell>
        <mxCell id="KpwYucl3YDDtUZVu9sAc-111" value="Козлов Александр" style="shape=umlActor;verticalLabelPosition=bottom;verticalAlign=top;html=1;outlineConnect=0;fontSize=14;" parent="1" vertex="1">
          <mxGeometry x="7250" y="1919" width="30" height="60" as="geometry" />
        </mxCell>
        <mxCell id="KpwYucl3YDDtUZVu9sAc-112" value="&amp;nbsp; Краснов Александр" style="shape=umlActor;verticalLabelPosition=bottom;verticalAlign=top;html=1;outlineConnect=0;fontSize=14;" parent="1" vertex="1">
          <mxGeometry x="7745" y="2154" width="30" height="60" as="geometry" />
        </mxCell>
        <mxCell id="KpwYucl3YDDtUZVu9sAc-113" value="Анненков Евгений" style="shape=umlActor;verticalLabelPosition=bottom;verticalAlign=top;html=1;outlineConnect=0;fontSize=14;" parent="1" vertex="1">
          <mxGeometry x="7021" y="2469" width="30" height="60" as="geometry" />
        </mxCell>
        <mxCell id="KpwYucl3YDDtUZVu9sAc-114" value="Козлов Александр" style="shape=umlActor;verticalLabelPosition=bottom;verticalAlign=top;html=1;outlineConnect=0;fontSize=14;" parent="1" vertex="1">
          <mxGeometry x="7476" y="1919" width="30" height="60" as="geometry" />
        </mxCell>
        <mxCell id="KpwYucl3YDDtUZVu9sAc-115" value="&lt;div&gt;&lt;span style=&quot;background-color: transparent; color: light-dark(rgb(0, 0, 0), rgb(255, 255, 255));&quot;&gt;Клочков Дмитрий&lt;/span&gt;&lt;/div&gt;" style="shape=umlActor;verticalLabelPosition=bottom;verticalAlign=top;html=1;outlineConnect=0;fontSize=14;" parent="1" vertex="1">
          <mxGeometry x="5145" y="-68.5" width="30" height="60" as="geometry" />
        </mxCell>
        <mxCell id="KpwYucl3YDDtUZVu9sAc-116" value="Голощапов Антон&amp;nbsp;" style="shape=umlActor;verticalLabelPosition=bottom;verticalAlign=top;html=1;outlineConnect=0;" parent="1" vertex="1">
          <mxGeometry x="6460" y="-860" width="30" height="60" as="geometry" />
        </mxCell>
        <mxCell id="KpwYucl3YDDtUZVu9sAc-117" value="Марченко Илья" style="shape=umlActor;verticalLabelPosition=bottom;verticalAlign=top;html=1;outlineConnect=0;" parent="1" vertex="1">
          <mxGeometry x="2425" y="-807.5" width="30" height="60" as="geometry" />
        </mxCell>
        <mxCell id="KpwYucl3YDDtUZVu9sAc-118" value="Шконда Игорь" style="shape=umlActor;verticalLabelPosition=bottom;verticalAlign=top;html=1;outlineConnect=0;" parent="1" vertex="1">
          <mxGeometry x="5225" y="-690" width="30" height="60" as="geometry" />
        </mxCell>
        <mxCell id="KpwYucl3YDDtUZVu9sAc-120" value="&lt;h1&gt;DevOps&lt;/h1&gt;" style="rounded=1;whiteSpace=wrap;html=1;" parent="1" vertex="1">
          <mxGeometry x="2240" y="-640" width="120" height="60" as="geometry" />
        </mxCell>
        <mxCell id="KpwYucl3YDDtUZVu9sAc-121" value="Пучков Виктор" style="shape=umlActor;verticalLabelPosition=bottom;verticalAlign=top;html=1;outlineConnect=0;" parent="1" vertex="1">
          <mxGeometry x="2285" y="-730" width="30" height="60" as="geometry" />
        </mxCell>
        <mxCell id="KpwYucl3YDDtUZVu9sAc-122" value="&lt;h1&gt;DevOps&lt;/h1&gt;" style="rounded=1;whiteSpace=wrap;html=1;" parent="1" vertex="1">
          <mxGeometry x="2300" y="-922.5" width="120" height="60" as="geometry" />
        </mxCell>
        <mxCell id="KpwYucl3YDDtUZVu9sAc-123" value="Пучков Виктор" style="shape=umlActor;verticalLabelPosition=bottom;verticalAlign=top;html=1;outlineConnect=0;" parent="1" vertex="1">
          <mxGeometry x="2345" y="-1012.5" width="30" height="60" as="geometry" />
        </mxCell>
        <mxCell id="KpwYucl3YDDtUZVu9sAc-125" value="Соболевский Александр" style="shape=umlActor;verticalLabelPosition=bottom;verticalAlign=top;html=1;outlineConnect=0;" parent="1" vertex="1">
          <mxGeometry x="7069" y="580" width="30" height="60" as="geometry" />
        </mxCell>
        <mxCell id="dLaZOeql_RbiaB47p6mQ-4" style="edgeStyle=orthogonalEdgeStyle;rounded=0;orthogonalLoop=1;jettySize=auto;html=1;entryX=0;entryY=0.5;entryDx=0;entryDy=0;" parent="1" source="dLaZOeql_RbiaB47p6mQ-1" target="dLaZOeql_RbiaB47p6mQ-3" edge="1">
          <mxGeometry relative="1" as="geometry" />
        </mxCell>
        <mxCell id="dLaZOeql_RbiaB47p6mQ-6" style="edgeStyle=orthogonalEdgeStyle;rounded=0;orthogonalLoop=1;jettySize=auto;html=1;entryX=0;entryY=0.5;entryDx=0;entryDy=0;" parent="1" source="dLaZOeql_RbiaB47p6mQ-1" target="dLaZOeql_RbiaB47p6mQ-5" edge="1">
          <mxGeometry relative="1" as="geometry" />
        </mxCell>
        <mxCell id="dLaZOeql_RbiaB47p6mQ-1" value="&lt;h1&gt;&lt;font style=&quot;font-size: 50px;&quot;&gt;Microsoft&lt;/font&gt;&lt;/h1&gt;" style="rounded=1;whiteSpace=wrap;html=1;" parent="1" vertex="1">
          <mxGeometry x="5830" y="2488" width="300" height="120" as="geometry" />
        </mxCell>
        <mxCell id="dLaZOeql_RbiaB47p6mQ-3" value="Кластер 1 Hyper-V" style="whiteSpace=wrap;html=1;rounded=1;fontSize=14;" parent="1" vertex="1">
          <mxGeometry x="6196" y="2431" width="200" height="60" as="geometry" />
        </mxCell>
        <mxCell id="dLaZOeql_RbiaB47p6mQ-5" value="Кластер 2 Hyper-V" style="whiteSpace=wrap;html=1;rounded=1;fontSize=14;" parent="1" vertex="1">
          <mxGeometry x="6196" y="2608" width="200" height="60" as="geometry" />
        </mxCell>
        <mxCell id="dLaZOeql_RbiaB47p6mQ-8" value="Кочетков Денис" style="shape=umlActor;verticalLabelPosition=bottom;verticalAlign=top;html=1;outlineConnect=0;fontSize=14;" parent="1" vertex="1">
          <mxGeometry x="6268" y="2330" width="30" height="60" as="geometry" />
        </mxCell>
        <mxCell id="dLaZOeql_RbiaB47p6mQ-9" value="CPVK_OVAIT-INFRA" style="whiteSpace=wrap;html=1;rounded=1;fontSize=14;" parent="1" vertex="1">
          <mxGeometry x="7421" y="2378" width="200" height="60" as="geometry" />
        </mxCell>
        <mxCell id="dLaZOeql_RbiaB47p6mQ-10" value="Анненков Евгений" style="shape=umlActor;verticalLabelPosition=bottom;verticalAlign=top;html=1;outlineConnect=0;fontSize=14;" parent="1" vertex="1">
          <mxGeometry x="7500" y="2464" width="30" height="60" as="geometry" />
        </mxCell>
        <mxCell id="dLaZOeql_RbiaB47p6mQ-13" value="CPVK_OVAIT-INFRA-DEV" style="whiteSpace=wrap;html=1;rounded=1;fontSize=14;" parent="1" vertex="1">
          <mxGeometry x="7180" y="2378" width="200" height="60" as="geometry" />
        </mxCell>
        <mxCell id="dLaZOeql_RbiaB47p6mQ-14" value="Анненков Евгений" style="shape=umlActor;verticalLabelPosition=bottom;verticalAlign=top;html=1;outlineConnect=0;fontSize=14;" parent="1" vertex="1">
          <mxGeometry x="7250" y="2469" width="30" height="60" as="geometry" />
        </mxCell>
        <mxCell id="dLaZOeql_RbiaB47p6mQ-15" value="Козлов Александр" style="shape=umlActor;verticalLabelPosition=bottom;verticalAlign=top;html=1;outlineConnect=0;fontSize=14;" parent="1" vertex="1">
          <mxGeometry x="7021" y="1919" width="30" height="60" as="geometry" />
        </mxCell>
        <mxCell id="dLaZOeql_RbiaB47p6mQ-24" value="&lt;h1&gt;&lt;span style=&quot;font-size: 50px;&quot;&gt;VMVare&lt;/span&gt;&lt;/h1&gt;" style="rounded=1;whiteSpace=wrap;html=1;" parent="1" vertex="1">
          <mxGeometry x="5095" y="1750" width="300" height="120" as="geometry" />
        </mxCell>
        <mxCell id="dLaZOeql_RbiaB47p6mQ-28" value="PostgresPRO" style="whiteSpace=wrap;html=1;rounded=1;fontSize=14;" parent="1" vertex="1">
          <mxGeometry x="4850" y="1755" width="200" height="60" as="geometry" />
        </mxCell>
        <mxCell id="dLaZOeql_RbiaB47p6mQ-29" value="Postgres" style="whiteSpace=wrap;html=1;rounded=1;fontSize=14;" parent="1" vertex="1">
          <mxGeometry x="4850" y="1670" width="200" height="60" as="geometry" />
        </mxCell>
        <mxCell id="dLaZOeql_RbiaB47p6mQ-30" value="Tantor" style="whiteSpace=wrap;html=1;rounded=1;fontSize=14;" parent="1" vertex="1">
          <mxGeometry x="4850" y="1835" width="200" height="60" as="geometry" />
        </mxCell>
        <mxCell id="dLaZOeql_RbiaB47p6mQ-31" value="Patroni" style="whiteSpace=wrap;html=1;rounded=1;fontSize=14;" parent="1" vertex="1">
          <mxGeometry x="4625" y="1670" width="200" height="60" as="geometry" />
        </mxCell>
        <mxCell id="dLaZOeql_RbiaB47p6mQ-32" value="ETCD" style="whiteSpace=wrap;html=1;rounded=1;fontSize=14;" parent="1" vertex="1">
          <mxGeometry x="4410" y="1670" width="200" height="60" as="geometry" />
        </mxCell>
        <mxCell id="dLaZOeql_RbiaB47p6mQ-33" value="BiHa" style="whiteSpace=wrap;html=1;rounded=1;fontSize=14;" parent="1" vertex="1">
          <mxGeometry x="4410" y="1755" width="200" height="60" as="geometry" />
        </mxCell>
        <mxCell id="dLaZOeql_RbiaB47p6mQ-34" value="ArenaData" style="whiteSpace=wrap;html=1;rounded=1;fontSize=14;" parent="1" vertex="1">
          <mxGeometry x="4410" y="1835" width="200" height="60" as="geometry" />
        </mxCell>
        <mxCell id="dLaZOeql_RbiaB47p6mQ-35" value="&lt;span style=&quot;color: rgb(33, 33, 33); font-family: wf_segoe-ui_normal, &amp;quot;Segoe UI&amp;quot;, &amp;quot;Segoe WP&amp;quot;, Tahoma, Arial, sans-serif, serif, EmojiFont; font-size: 15px; text-align: start; background-color: rgb(255, 255, 255);&quot;&gt;TantorPlatform&lt;/span&gt;" style="whiteSpace=wrap;html=1;rounded=1;fontSize=14;" parent="1" vertex="1">
          <mxGeometry x="4625" y="1835" width="200" height="60" as="geometry" />
        </mxCell>
        <mxCell id="dLaZOeql_RbiaB47p6mQ-36" value="&lt;span style=&quot;color: rgb(33, 33, 33); font-family: wf_segoe-ui_normal, &amp;quot;Segoe UI&amp;quot;, &amp;quot;Segoe WP&amp;quot;, Tahoma, Arial, sans-serif, serif, EmojiFont; font-size: 15px; text-align: start; background-color: rgb(255, 255, 255);&quot;&gt;PostgresPro EM&lt;/span&gt;" style="whiteSpace=wrap;html=1;rounded=1;fontSize=14;" parent="1" vertex="1">
          <mxGeometry x="4625" y="1755" width="200" height="60" as="geometry" />
        </mxCell>
        <mxCell id="dLaZOeql_RbiaB47p6mQ-37" value="&lt;span style=&quot;color: rgb(33, 33, 33); font-family: wf_segoe-ui_normal, &amp;quot;Segoe UI&amp;quot;, &amp;quot;Segoe WP&amp;quot;, Tahoma, Arial, sans-serif, serif, EmojiFont; font-size: 15px; text-align: start; background-color: rgb(255, 255, 255);&quot;&gt;Pangolin&lt;/span&gt;" style="whiteSpace=wrap;html=1;rounded=1;fontSize=14;" parent="1" vertex="1">
          <mxGeometry x="4850" y="1905" width="200" height="60" as="geometry" />
        </mxCell>
        <mxCell id="dLaZOeql_RbiaB47p6mQ-38" value="&lt;span style=&quot;color: rgb(33, 33, 33); font-family: wf_segoe-ui_normal, &amp;quot;Segoe UI&amp;quot;, &amp;quot;Segoe WP&amp;quot;, Tahoma, Arial, sans-serif, serif, EmojiFont; font-size: 15px; text-align: start; background-color: rgb(255, 255, 255);&quot;&gt;MIND&lt;/span&gt;" style="whiteSpace=wrap;html=1;rounded=1;fontSize=14;" parent="1" vertex="1">
          <mxGeometry x="4850" y="2060" width="200" height="60" as="geometry" />
        </mxCell>
        <mxCell id="dLaZOeql_RbiaB47p6mQ-39" value="&lt;span style=&quot;color: rgb(33, 33, 33); font-family: Calibri, sans-serif, serif, EmojiFont; font-size: 14.6667px; text-align: start; text-wrap-mode: wrap; background-color: rgb(255, 255, 255);&quot;&gt;Шарашкин&amp;nbsp;&lt;/span&gt;&lt;span style=&quot;color: rgb(33, 33, 33); font-family: Calibri, sans-serif, serif, EmojiFont; font-size: 14.6667px; text-align: start; text-wrap-mode: wrap; background-color: rgb(255, 255, 255);&quot;&gt;Андрей&amp;nbsp;&lt;/span&gt;" style="shape=umlActor;verticalLabelPosition=bottom;verticalAlign=top;html=1;outlineConnect=0;fontSize=14;" parent="1" vertex="1">
          <mxGeometry x="5945" y="2378" width="30" height="60" as="geometry" />
        </mxCell>
        <mxCell id="dLaZOeql_RbiaB47p6mQ-40" value="&lt;span style=&quot;color: rgb(33, 33, 33); font-family: Calibri, sans-serif, serif, EmojiFont; font-size: 14.6667px; text-align: start; text-wrap-mode: wrap; background-color: rgb(255, 255, 255);&quot;&gt;???Шарашкин&amp;nbsp;&lt;/span&gt;&lt;span style=&quot;color: rgb(33, 33, 33); font-family: Calibri, sans-serif, serif, EmojiFont; font-size: 14.6667px; text-align: start; text-wrap-mode: wrap; background-color: rgb(255, 255, 255);&quot;&gt;Андрей???&lt;/span&gt;" style="shape=umlActor;verticalLabelPosition=bottom;verticalAlign=top;html=1;outlineConnect=0;fontSize=14;" parent="1" vertex="1">
          <mxGeometry x="6800" y="2105" width="30" height="60" as="geometry" />
        </mxCell>
        <mxCell id="dLaZOeql_RbiaB47p6mQ-41" value="Кочетков Денис" style="shape=umlActor;verticalLabelPosition=bottom;verticalAlign=top;html=1;outlineConnect=0;fontSize=14;" parent="1" vertex="1">
          <mxGeometry x="6265" y="2518" width="30" height="60" as="geometry" />
        </mxCell>
        <mxCell id="dLaZOeql_RbiaB47p6mQ-42" style="edgeStyle=orthogonalEdgeStyle;rounded=0;orthogonalLoop=1;jettySize=auto;html=1;entryX=0;entryY=0.5;entryDx=0;entryDy=0;" parent="1" source="KpwYucl3YDDtUZVu9sAc-30" target="dLaZOeql_RbiaB47p6mQ-50" edge="1">
          <mxGeometry relative="1" as="geometry">
            <mxPoint x="7072.535" y="1107.9680000000008" as="targetPoint" />
            <Array as="points">
              <mxPoint x="6920" y="-60" />
              <mxPoint x="6920" y="710" />
            </Array>
          </mxGeometry>
        </mxCell>
        <mxCell id="dLaZOeql_RbiaB47p6mQ-44" value="Хост моно-инсталяции" style="whiteSpace=wrap;html=1;rounded=1;fontSize=14;" parent="1" vertex="1">
          <mxGeometry x="7240" y="320" width="200" height="60" as="geometry" />
        </mxCell>
        <mxCell id="dLaZOeql_RbiaB47p6mQ-45" value="&lt;span style=&quot;color: rgb(33, 37, 41); font-family: -apple-system, BlinkMacSystemFont, &amp;quot;Segoe UI&amp;quot;, Roboto, Oxygen, Ubuntu, &amp;quot;Fira Sans&amp;quot;, &amp;quot;Droid Sans&amp;quot;, &amp;quot;Helvetica Neue&amp;quot;, sans-serif; text-align: left; background-color: rgb(255, 255, 255);&quot;&gt;Web-сервер для настройки autodiscover/autoconfig&lt;/span&gt;" style="whiteSpace=wrap;html=1;rounded=1;fontSize=14;" parent="1" vertex="1">
          <mxGeometry x="7240" y="415" width="200" height="60" as="geometry" />
        </mxCell>
        <mxCell id="dLaZOeql_RbiaB47p6mQ-46" value="&lt;span style=&quot;color: rgb(33, 37, 41); font-family: -apple-system, BlinkMacSystemFont, &amp;quot;Segoe UI&amp;quot;, Roboto, Oxygen, Ubuntu, &amp;quot;Fira Sans&amp;quot;, &amp;quot;Droid Sans&amp;quot;, &amp;quot;Helvetica Neue&amp;quot;, sans-serif; text-align: left; background-color: rgb(255, 255, 255);&quot;&gt;Windows-АРМ для демонстрации толстых клиентов&lt;/span&gt;" style="whiteSpace=wrap;html=1;rounded=1;fontSize=14;" parent="1" vertex="1">
          <mxGeometry x="7240" y="505" width="200" height="60" as="geometry" />
        </mxCell>
        <mxCell id="dLaZOeql_RbiaB47p6mQ-63" value="" style="edgeStyle=orthogonalEdgeStyle;rounded=0;orthogonalLoop=1;jettySize=auto;html=1;entryX=0;entryY=0.5;entryDx=0;entryDy=0;" parent="1" source="dLaZOeql_RbiaB47p6mQ-50" target="dLaZOeql_RbiaB47p6mQ-61" edge="1">
          <mxGeometry relative="1" as="geometry" />
        </mxCell>
        <mxCell id="dLaZOeql_RbiaB47p6mQ-66" style="edgeStyle=orthogonalEdgeStyle;rounded=0;orthogonalLoop=1;jettySize=auto;html=1;entryX=0;entryY=0.5;entryDx=0;entryDy=0;" parent="1" source="dLaZOeql_RbiaB47p6mQ-50" target="dLaZOeql_RbiaB47p6mQ-64" edge="1">
          <mxGeometry relative="1" as="geometry" />
        </mxCell>
        <mxCell id="dLaZOeql_RbiaB47p6mQ-50" value="ВИРТ&lt;div&gt;Базис&lt;/div&gt;" style="whiteSpace=wrap;html=1;rounded=1;" parent="1" vertex="1">
          <mxGeometry x="7028" y="680" width="120" height="60" as="geometry" />
        </mxCell>
        <mxCell id="dLaZOeql_RbiaB47p6mQ-58" value="" style="edgeStyle=orthogonalEdgeStyle;rounded=0;orthogonalLoop=1;jettySize=auto;html=1;" parent="1" source="dLaZOeql_RbiaB47p6mQ-51" target="dLaZOeql_RbiaB47p6mQ-57" edge="1">
          <mxGeometry relative="1" as="geometry" />
        </mxCell>
        <mxCell id="dLaZOeql_RbiaB47p6mQ-60" style="edgeStyle=orthogonalEdgeStyle;rounded=0;orthogonalLoop=1;jettySize=auto;html=1;entryX=0;entryY=0.5;entryDx=0;entryDy=0;" parent="1" source="dLaZOeql_RbiaB47p6mQ-51" target="dLaZOeql_RbiaB47p6mQ-59" edge="1">
          <mxGeometry relative="1" as="geometry" />
        </mxCell>
        <mxCell id="dLaZOeql_RbiaB47p6mQ-68" value="" style="edgeStyle=orthogonalEdgeStyle;rounded=0;orthogonalLoop=1;jettySize=auto;html=1;" parent="1" source="dLaZOeql_RbiaB47p6mQ-51" target="dLaZOeql_RbiaB47p6mQ-67" edge="1">
          <mxGeometry relative="1" as="geometry" />
        </mxCell>
        <mxCell id="dLaZOeql_RbiaB47p6mQ-51" value="ВИРТ&lt;div&gt;Брест&lt;/div&gt;" style="whiteSpace=wrap;html=1;rounded=1;" parent="1" vertex="1">
          <mxGeometry x="7028" y="882" width="120" height="60" as="geometry" />
        </mxCell>
        <mxCell id="dLaZOeql_RbiaB47p6mQ-52" value="Соболевский Александр" style="shape=umlActor;verticalLabelPosition=bottom;verticalAlign=top;html=1;outlineConnect=0;" parent="1" vertex="1">
          <mxGeometry x="7069" y="782" width="30" height="60" as="geometry" />
        </mxCell>
        <mxCell id="dLaZOeql_RbiaB47p6mQ-71" style="edgeStyle=orthogonalEdgeStyle;rounded=0;orthogonalLoop=1;jettySize=auto;html=1;entryX=0;entryY=0.5;entryDx=0;entryDy=0;" parent="1" source="dLaZOeql_RbiaB47p6mQ-54" target="dLaZOeql_RbiaB47p6mQ-69" edge="1">
          <mxGeometry relative="1" as="geometry" />
        </mxCell>
        <mxCell id="dLaZOeql_RbiaB47p6mQ-72" style="edgeStyle=orthogonalEdgeStyle;rounded=0;orthogonalLoop=1;jettySize=auto;html=1;entryX=0;entryY=0.5;entryDx=0;entryDy=0;" parent="1" source="dLaZOeql_RbiaB47p6mQ-54" target="dLaZOeql_RbiaB47p6mQ-70" edge="1">
          <mxGeometry relative="1" as="geometry" />
        </mxCell>
        <mxCell id="dLaZOeql_RbiaB47p6mQ-54" value="ВИРТ&lt;div&gt;&lt;span style=&quot;font-size: 14.6667px;&quot;&gt;VMManager&lt;/span&gt;&lt;/div&gt;" style="whiteSpace=wrap;html=1;rounded=1;" parent="1" vertex="1">
          <mxGeometry x="7028" y="1068" width="120" height="60" as="geometry" />
        </mxCell>
        <mxCell id="dLaZOeql_RbiaB47p6mQ-55" value="Соболевский Александр" style="shape=umlActor;verticalLabelPosition=bottom;verticalAlign=top;html=1;outlineConnect=0;" parent="1" vertex="1">
          <mxGeometry x="7069" y="968" width="30" height="60" as="geometry" />
        </mxCell>
        <mxCell id="dLaZOeql_RbiaB47p6mQ-57" value="&lt;span style=&quot;color: rgb(23, 43, 77); font-family: -apple-system, BlinkMacSystemFont, &amp;quot;Segoe UI&amp;quot;, Roboto, Oxygen, Ubuntu, &amp;quot;Fira Sans&amp;quot;, &amp;quot;Droid Sans&amp;quot;, &amp;quot;Helvetica Neue&amp;quot;, sans-serif; font-size: 14px; text-align: left; background-color: rgb(255, 255, 255);&quot;&gt;ВМ управления&lt;/span&gt;" style="whiteSpace=wrap;html=1;rounded=1;" parent="1" vertex="1">
          <mxGeometry x="7270" y="842" width="170" height="60" as="geometry" />
        </mxCell>
        <mxCell id="dLaZOeql_RbiaB47p6mQ-59" value="&lt;span style=&quot;color: rgb(23, 43, 77); font-family: -apple-system, BlinkMacSystemFont, &amp;quot;Segoe UI&amp;quot;, Roboto, Oxygen, Ubuntu, &amp;quot;Fira Sans&amp;quot;, &amp;quot;Droid Sans&amp;quot;, &amp;quot;Helvetica Neue&amp;quot;, sans-serif; font-size: 14px; text-align: left; background-color: rgb(255, 255, 255);&quot;&gt;Хост виртуализации&lt;/span&gt;" style="whiteSpace=wrap;html=1;rounded=1;" parent="1" vertex="1">
          <mxGeometry x="7270" y="922" width="170" height="60" as="geometry" />
        </mxCell>
        <mxCell id="dLaZOeql_RbiaB47p6mQ-61" value="Dynamix Enterprise" style="whiteSpace=wrap;html=1;rounded=1;" parent="1" vertex="1">
          <mxGeometry x="7260" y="624" width="120" height="60" as="geometry" />
        </mxCell>
        <mxCell id="dLaZOeql_RbiaB47p6mQ-64" value="Базис.vControl" style="whiteSpace=wrap;html=1;rounded=1;" parent="1" vertex="1">
          <mxGeometry x="7260" y="722" width="120" height="60" as="geometry" />
        </mxCell>
        <mxCell id="dLaZOeql_RbiaB47p6mQ-67" value="&lt;span style=&quot;color: rgb(23, 43, 77); font-family: -apple-system, BlinkMacSystemFont, &amp;quot;Segoe UI&amp;quot;, Roboto, Oxygen, Ubuntu, &amp;quot;Fira Sans&amp;quot;, &amp;quot;Droid Sans&amp;quot;, &amp;quot;Helvetica Neue&amp;quot;, sans-serif; font-size: 14px; text-align: left; background-color: rgb(255, 255, 255);&quot;&gt;ВМ службы каталогов FreeIpa&lt;/span&gt;" style="whiteSpace=wrap;html=1;rounded=1;" parent="1" vertex="1">
          <mxGeometry x="7520" y="882" width="120" height="60" as="geometry" />
        </mxCell>
        <mxCell id="dLaZOeql_RbiaB47p6mQ-69" value="&lt;span style=&quot;color: rgb(23, 43, 77); font-family: -apple-system, BlinkMacSystemFont, &amp;quot;Segoe UI&amp;quot;, Roboto, Oxygen, Ubuntu, &amp;quot;Fira Sans&amp;quot;, &amp;quot;Droid Sans&amp;quot;, &amp;quot;Helvetica Neue&amp;quot;, sans-serif; font-size: 14px; text-align: left; background-color: rgb(255, 255, 255);&quot;&gt;ВМ управления&lt;/span&gt;" style="whiteSpace=wrap;html=1;rounded=1;" parent="1" vertex="1">
          <mxGeometry x="7260" y="1052" width="170" height="60" as="geometry" />
        </mxCell>
        <mxCell id="dLaZOeql_RbiaB47p6mQ-70" value="&lt;span style=&quot;color: rgb(23, 43, 77); font-family: -apple-system, BlinkMacSystemFont, &amp;quot;Segoe UI&amp;quot;, Roboto, Oxygen, Ubuntu, &amp;quot;Fira Sans&amp;quot;, &amp;quot;Droid Sans&amp;quot;, &amp;quot;Helvetica Neue&amp;quot;, sans-serif; font-size: 14px; text-align: left; background-color: rgb(255, 255, 255);&quot;&gt;Хост виртуализации&lt;/span&gt;" style="whiteSpace=wrap;html=1;rounded=1;" parent="1" vertex="1">
          <mxGeometry x="7260" y="1132" width="170" height="60" as="geometry" />
        </mxCell>
        <mxCell id="ZUpTjCeXcWNoa8AB_6JW-2" value="Кибер Бэкап" style="whiteSpace=wrap;html=1;rounded=1;" parent="1" vertex="1">
          <mxGeometry x="4730" y="-650" width="120" height="60" as="geometry" />
        </mxCell>
        <mxCell id="ZUpTjCeXcWNoa8AB_6JW-4" value="RuBackup" style="whiteSpace=wrap;html=1;rounded=1;" parent="1" vertex="1">
          <mxGeometry x="4730" y="-561" width="120" height="60" as="geometry" />
        </mxCell>
        <mxCell id="ZUpTjCeXcWNoa8AB_6JW-6" value="Vinchin" style="whiteSpace=wrap;html=1;rounded=1;" parent="1" vertex="1">
          <mxGeometry x="4730" y="-470" width="120" height="60" as="geometry" />
        </mxCell>
        <mxCell id="ZUpTjCeXcWNoa8AB_6JW-9" value="&lt;span style=&quot;color: rgb(23, 43, 77); font-family: -apple-system, BlinkMacSystemFont, &amp;quot;Segoe UI&amp;quot;, Roboto, Oxygen, Ubuntu, &amp;quot;Fira Sans&amp;quot;, &amp;quot;Droid Sans&amp;quot;, &amp;quot;Helvetica Neue&amp;quot;, sans-serif; text-align: left; background-color: rgb(255, 255, 255);&quot;&gt;Quantum DXi V5000&lt;/span&gt;" style="whiteSpace=wrap;html=1;rounded=1;fontSize=14;" parent="1" vertex="1">
          <mxGeometry x="4610" y="2065" width="200" height="60" as="geometry" />
        </mxCell>
        <mxCell id="ZUpTjCeXcWNoa8AB_6JW-10" value="mail.ru" style="whiteSpace=wrap;html=1;rounded=1;" parent="1" vertex="1">
          <mxGeometry x="6560" y="-1030" width="120" height="60" as="geometry" />
        </mxCell>
        <mxCell id="ZUpTjCeXcWNoa8AB_6JW-16" value="" style="edgeStyle=orthogonalEdgeStyle;rounded=0;orthogonalLoop=1;jettySize=auto;html=1;" parent="1" source="ZUpTjCeXcWNoa8AB_6JW-12" target="ZUpTjCeXcWNoa8AB_6JW-15" edge="1">
          <mxGeometry relative="1" as="geometry" />
        </mxCell>
        <mxCell id="ZUpTjCeXcWNoa8AB_6JW-19" value="" style="edgeStyle=orthogonalEdgeStyle;rounded=0;orthogonalLoop=1;jettySize=auto;html=1;" parent="1" source="ZUpTjCeXcWNoa8AB_6JW-12" target="ZUpTjCeXcWNoa8AB_6JW-18" edge="1">
          <mxGeometry relative="1" as="geometry" />
        </mxCell>
        <mxCell id="ZUpTjCeXcWNoa8AB_6JW-21" value="" style="edgeStyle=orthogonalEdgeStyle;rounded=0;orthogonalLoop=1;jettySize=auto;html=1;entryX=1;entryY=0.5;entryDx=0;entryDy=0;" parent="1" source="ZUpTjCeXcWNoa8AB_6JW-12" target="ZUpTjCeXcWNoa8AB_6JW-20" edge="1">
          <mxGeometry relative="1" as="geometry">
            <Array as="points">
              <mxPoint x="5430" y="-1256" />
            </Array>
          </mxGeometry>
        </mxCell>
        <mxCell id="ZUpTjCeXcWNoa8AB_6JW-12" value="&lt;h1&gt;&lt;font style=&quot;font-size: 39px;&quot;&gt;ВЦОД&lt;/font&gt;&lt;/h1&gt;" style="rounded=1;whiteSpace=wrap;html=1;" parent="1" vertex="1">
          <mxGeometry x="5280" y="-1426" width="300" height="120" as="geometry" />
        </mxCell>
        <mxCell id="ZUpTjCeXcWNoa8AB_6JW-14" value="Рогожин Алексей" style="shape=umlActor;verticalLabelPosition=bottom;verticalAlign=top;html=1;outlineConnect=0;" parent="1" vertex="1">
          <mxGeometry x="5410" y="-1530" width="30" height="60" as="geometry" />
        </mxCell>
        <mxCell id="ZUpTjCeXcWNoa8AB_6JW-15" value="ZVirt" style="whiteSpace=wrap;html=1;rounded=1;" parent="1" vertex="1">
          <mxGeometry x="5030" y="-1470" width="120" height="60" as="geometry" />
        </mxCell>
        <mxCell id="ZUpTjCeXcWNoa8AB_6JW-18" value="Базальт СПО" style="whiteSpace=wrap;html=1;rounded=1;" parent="1" vertex="1">
          <mxGeometry x="5030" y="-1376" width="120" height="60" as="geometry" />
        </mxCell>
        <mxCell id="ZUpTjCeXcWNoa8AB_6JW-20" value="AldPRO" style="whiteSpace=wrap;html=1;rounded=1;" parent="1" vertex="1">
          <mxGeometry x="5030" y="-1286" width="120" height="60" as="geometry" />
        </mxCell>
        <mxCell id="ZUpTjCeXcWNoa8AB_6JW-46" value="" style="edgeStyle=orthogonalEdgeStyle;rounded=0;orthogonalLoop=1;jettySize=auto;html=1;" parent="1" source="ZUpTjCeXcWNoa8AB_6JW-23" target="ZUpTjCeXcWNoa8AB_6JW-45" edge="1">
          <mxGeometry relative="1" as="geometry" />
        </mxCell>
        <mxCell id="ZUpTjCeXcWNoa8AB_6JW-53" style="edgeStyle=orthogonalEdgeStyle;rounded=0;orthogonalLoop=1;jettySize=auto;html=1;entryX=0.5;entryY=1;entryDx=0;entryDy=0;" parent="1" source="ZUpTjCeXcWNoa8AB_6JW-23" target="ZUpTjCeXcWNoa8AB_6JW-38" edge="1">
          <mxGeometry relative="1" as="geometry" />
        </mxCell>
        <mxCell id="ZUpTjCeXcWNoa8AB_6JW-54" style="edgeStyle=orthogonalEdgeStyle;rounded=0;orthogonalLoop=1;jettySize=auto;html=1;entryX=0.5;entryY=1;entryDx=0;entryDy=0;" parent="1" source="ZUpTjCeXcWNoa8AB_6JW-23" target="ZUpTjCeXcWNoa8AB_6JW-40" edge="1">
          <mxGeometry relative="1" as="geometry" />
        </mxCell>
        <mxCell id="ZUpTjCeXcWNoa8AB_6JW-23" value="&lt;h1&gt;&lt;font style=&quot;font-size: 50px;&quot;&gt;ОСРиВ&lt;/font&gt;&lt;/h1&gt;" style="rounded=1;whiteSpace=wrap;html=1;" parent="1" vertex="1">
          <mxGeometry x="5045" y="730" width="300" height="120" as="geometry" />
        </mxCell>
        <mxCell id="ZUpTjCeXcWNoa8AB_6JW-27" value="&lt;p style=&quot;font-family: &amp;quot;Times New Roman&amp;quot;; font-size: medium;&quot;&gt;Citrix&lt;/p&gt;" style="whiteSpace=wrap;html=1;rounded=1;align=center;" parent="1" vertex="1">
          <mxGeometry x="4030" y="1165" width="150" height="60" as="geometry" />
        </mxCell>
        <mxCell id="ZUpTjCeXcWNoa8AB_6JW-29" value="&lt;p style=&quot;font-family: &amp;quot;Times New Roman&amp;quot;; font-size: medium;&quot;&gt;Termidesk JRL&lt;/p&gt;" style="whiteSpace=wrap;html=1;rounded=1;align=center;" parent="1" vertex="1">
          <mxGeometry x="7028" y="1315" width="300" height="60" as="geometry" />
        </mxCell>
        <mxCell id="ZUpTjCeXcWNoa8AB_6JW-30" value="&lt;p style=&quot;font-family: &amp;quot;Times New Roman&amp;quot;; font-size: medium;&quot;&gt;Space VDI&lt;/p&gt;" style="whiteSpace=wrap;html=1;rounded=1;align=center;" parent="1" vertex="1">
          <mxGeometry x="4220" y="942" width="150" height="60" as="geometry" />
        </mxCell>
        <mxCell id="ZUpTjCeXcWNoa8AB_6JW-31" value="&lt;p style=&quot;font-family: &amp;quot;Times New Roman&amp;quot;; font-size: medium;&quot;&gt;Loudplay&lt;/p&gt;" style="whiteSpace=wrap;html=1;rounded=1;align=center;" parent="1" vertex="1">
          <mxGeometry x="4410" y="1165" width="150" height="60" as="geometry" />
        </mxCell>
        <mxCell id="ZUpTjCeXcWNoa8AB_6JW-32" value="&lt;p style=&quot;font-family: &amp;quot;Times New Roman&amp;quot;; font-size: medium;&quot;&gt;Базис.Workplace&lt;/p&gt;" style="whiteSpace=wrap;html=1;rounded=1;align=center;" parent="1" vertex="1">
          <mxGeometry x="4020" y="942" width="150" height="60" as="geometry" />
        </mxCell>
        <mxCell id="ZUpTjCeXcWNoa8AB_6JW-33" value="Марченко Илья" style="shape=umlActor;verticalLabelPosition=bottom;verticalAlign=top;html=1;outlineConnect=0;" parent="1" vertex="1">
          <mxGeometry x="7148" y="1220" width="30" height="60" as="geometry" />
        </mxCell>
        <mxCell id="ZUpTjCeXcWNoa8AB_6JW-38" value="Basic Migration Assistance" style="whiteSpace=wrap;html=1;rounded=1;" parent="1" vertex="1">
          <mxGeometry x="4710" y="590" width="120" height="60" as="geometry" />
        </mxCell>
        <mxCell id="ZUpTjCeXcWNoa8AB_6JW-40" value="&lt;span style=&quot;color: rgb(33, 33, 33); font-family: wf_segoe-ui_normal, &amp;quot;Segoe UI&amp;quot;, &amp;quot;Segoe WP&amp;quot;, Tahoma, Arial, sans-serif, serif, EmojiFont; font-size: 15px; text-align: start; background-color: rgb(255, 255, 255);&quot;&gt;MIND&lt;/span&gt;" style="whiteSpace=wrap;html=1;rounded=1;fontSize=14;" parent="1" vertex="1">
          <mxGeometry x="4560" y="590" width="120" height="60" as="geometry" />
        </mxCell>
        <mxCell id="ZUpTjCeXcWNoa8AB_6JW-43" value="Марченко Илья" style="shape=umlActor;verticalLabelPosition=bottom;verticalAlign=top;html=1;outlineConnect=0;" parent="1" vertex="1">
          <mxGeometry x="4755" y="475" width="30" height="60" as="geometry" />
        </mxCell>
        <mxCell id="ZUpTjCeXcWNoa8AB_6JW-44" value="Марченко Илья" style="shape=umlActor;verticalLabelPosition=bottom;verticalAlign=top;html=1;outlineConnect=0;" parent="1" vertex="1">
          <mxGeometry x="4605" y="475" width="30" height="60" as="geometry" />
        </mxCell>
        <mxCell id="ZUpTjCeXcWNoa8AB_6JW-52" style="edgeStyle=orthogonalEdgeStyle;rounded=0;orthogonalLoop=1;jettySize=auto;html=1;entryX=0.5;entryY=0;entryDx=0;entryDy=0;" parent="1" source="ZUpTjCeXcWNoa8AB_6JW-45" target="ZUpTjCeXcWNoa8AB_6JW-31" edge="1">
          <mxGeometry relative="1" as="geometry" />
        </mxCell>
        <mxCell id="ZUpTjCeXcWNoa8AB_6JW-57" style="edgeStyle=orthogonalEdgeStyle;rounded=0;orthogonalLoop=1;jettySize=auto;html=1;entryX=0.5;entryY=1;entryDx=0;entryDy=0;" parent="1" source="ZUpTjCeXcWNoa8AB_6JW-45" target="ZUpTjCeXcWNoa8AB_6JW-30" edge="1">
          <mxGeometry relative="1" as="geometry" />
        </mxCell>
        <mxCell id="ZUpTjCeXcWNoa8AB_6JW-58" style="edgeStyle=orthogonalEdgeStyle;rounded=0;orthogonalLoop=1;jettySize=auto;html=1;entryX=0.5;entryY=1;entryDx=0;entryDy=0;" parent="1" source="ZUpTjCeXcWNoa8AB_6JW-45" target="ZUpTjCeXcWNoa8AB_6JW-32" edge="1">
          <mxGeometry relative="1" as="geometry" />
        </mxCell>
        <mxCell id="ZUpTjCeXcWNoa8AB_6JW-61" style="edgeStyle=orthogonalEdgeStyle;rounded=0;orthogonalLoop=1;jettySize=auto;html=1;entryX=0.5;entryY=1;entryDx=0;entryDy=0;" parent="1" source="ZUpTjCeXcWNoa8AB_6JW-45" target="ZUpTjCeXcWNoa8AB_6JW-59" edge="1">
          <mxGeometry relative="1" as="geometry" />
        </mxCell>
        <mxCell id="ZUpTjCeXcWNoa8AB_6JW-62" style="edgeStyle=orthogonalEdgeStyle;rounded=0;orthogonalLoop=1;jettySize=auto;html=1;entryX=0.5;entryY=0;entryDx=0;entryDy=0;" parent="1" source="ZUpTjCeXcWNoa8AB_6JW-45" target="ZUpTjCeXcWNoa8AB_6JW-60" edge="1">
          <mxGeometry relative="1" as="geometry" />
        </mxCell>
        <mxCell id="ZUpTjCeXcWNoa8AB_6JW-65" style="edgeStyle=orthogonalEdgeStyle;rounded=0;orthogonalLoop=1;jettySize=auto;html=1;" parent="1" source="ZUpTjCeXcWNoa8AB_6JW-45" target="ZUpTjCeXcWNoa8AB_6JW-27" edge="1">
          <mxGeometry relative="1" as="geometry" />
        </mxCell>
        <mxCell id="ZUpTjCeXcWNoa8AB_6JW-45" value="&lt;font style=&quot;font-size: 25px;&quot;&gt;VDI&lt;/font&gt;" style="whiteSpace=wrap;html=1;rounded=1;" parent="1" vertex="1">
          <mxGeometry x="4680" y="1068" width="120" height="60" as="geometry" />
        </mxCell>
        <mxCell id="ZUpTjCeXcWNoa8AB_6JW-55" value="" style="edgeStyle=orthogonalEdgeStyle;rounded=0;orthogonalLoop=1;jettySize=auto;html=1;entryX=0.5;entryY=0;entryDx=0;entryDy=0;" parent="1" source="ZUpTjCeXcWNoa8AB_6JW-45" target="ZUpTjCeXcWNoa8AB_6JW-28" edge="1">
          <mxGeometry relative="1" as="geometry">
            <mxPoint x="4680" y="1098" as="sourcePoint" />
            <mxPoint x="4160" y="1194" as="targetPoint" />
          </mxGeometry>
        </mxCell>
        <mxCell id="ZUpTjCeXcWNoa8AB_6JW-28" value="&lt;p style=&quot;font-family: &amp;quot;Times New Roman&amp;quot;; font-size: medium;&quot;&gt;Termidesk&lt;/p&gt;" style="whiteSpace=wrap;html=1;rounded=1;align=center;" parent="1" vertex="1">
          <mxGeometry x="4220" y="1165" width="150" height="60" as="geometry" />
        </mxCell>
        <mxCell id="ZUpTjCeXcWNoa8AB_6JW-56" value="" style="edgeStyle=orthogonalEdgeStyle;rounded=0;orthogonalLoop=1;jettySize=auto;html=1;entryX=0.5;entryY=1;entryDx=0;entryDy=0;" parent="1" source="ZUpTjCeXcWNoa8AB_6JW-45" target="ZUpTjCeXcWNoa8AB_6JW-24" edge="1">
          <mxGeometry relative="1" as="geometry">
            <mxPoint x="4680" y="1098" as="sourcePoint" />
            <mxPoint x="4400" y="976" as="targetPoint" />
          </mxGeometry>
        </mxCell>
        <mxCell id="ZUpTjCeXcWNoa8AB_6JW-24" value="&lt;p style=&quot;font-family: &amp;quot;Times New Roman&amp;quot;; font-size: medium;&quot;&gt;VMVare Horizon&lt;/p&gt;" style="whiteSpace=wrap;html=1;rounded=1;align=center;" parent="1" vertex="1">
          <mxGeometry x="4410" y="942" width="150" height="60" as="geometry" />
        </mxCell>
        <mxCell id="ZUpTjCeXcWNoa8AB_6JW-59" value="&lt;p style=&quot;font-family: &amp;quot;Times New Roman&amp;quot;; font-size: medium;&quot;&gt;Termit&lt;/p&gt;" style="whiteSpace=wrap;html=1;rounded=1;align=center;" parent="1" vertex="1">
          <mxGeometry x="3840" y="942" width="150" height="60" as="geometry" />
        </mxCell>
        <mxCell id="ZUpTjCeXcWNoa8AB_6JW-60" value="&lt;p style=&quot;font-family: &amp;quot;Times New Roman&amp;quot;; font-size: medium;&quot;&gt;TSPlus&lt;/p&gt;" style="whiteSpace=wrap;html=1;rounded=1;align=center;" parent="1" vertex="1">
          <mxGeometry x="3840" y="1165" width="150" height="60" as="geometry" />
        </mxCell>
        <mxCell id="ZUpTjCeXcWNoa8AB_6JW-63" value="Марченко Илья" style="shape=umlActor;verticalLabelPosition=bottom;verticalAlign=top;html=1;outlineConnect=0;" parent="1" vertex="1">
          <mxGeometry x="4175" y="822" width="30" height="60" as="geometry" />
        </mxCell>
        <mxCell id="ZUpTjCeXcWNoa8AB_6JW-64" value="Новиков Валерий" style="shape=umlActor;verticalLabelPosition=bottom;verticalAlign=top;html=1;outlineConnect=0;" parent="1" vertex="1">
          <mxGeometry x="4175" y="1245" width="30" height="60" as="geometry" />
        </mxCell>
        <mxCell id="ZUpTjCeXcWNoa8AB_6JW-66" value="Марченко илья" style="shape=umlActor;verticalLabelPosition=bottom;verticalAlign=top;html=1;outlineConnect=0;" parent="1" vertex="1">
          <mxGeometry x="4720" y="1150" width="30" height="60" as="geometry" />
        </mxCell>
        <mxCell id="ZUpTjCeXcWNoa8AB_6JW-67" value="???Горохов Дмитрий???" style="shape=umlActor;verticalLabelPosition=bottom;verticalAlign=top;html=1;outlineConnect=0;" parent="1" vertex="1">
          <mxGeometry x="4720" y="1245" width="30" height="60" as="geometry" />
        </mxCell>
        <mxCell id="ZUpTjCeXcWNoa8AB_6JW-68" value="???Горохов Дмитрий???" style="shape=umlActor;verticalLabelPosition=bottom;verticalAlign=top;html=1;outlineConnect=0;" parent="1" vertex="1">
          <mxGeometry x="5180" y="640" width="30" height="60" as="geometry" />
        </mxCell>
        <mxCell id="ZUpTjCeXcWNoa8AB_6JW-70" value="???QTECH???" style="whiteSpace=wrap;html=1;rounded=1;" parent="1" vertex="1">
          <mxGeometry x="4800" y="-810" width="120" height="60" as="geometry" />
        </mxCell>
        <mxCell id="ZUpTjCeXcWNoa8AB_6JW-72" value="&lt;font style=&quot;font-size: 30px;&quot;&gt;ОКР - Голощапов Антон&lt;/font&gt;" style="text;html=1;align=center;verticalAlign=middle;resizable=0;points=[];autosize=1;strokeColor=none;fillColor=none;" parent="1" vertex="1">
          <mxGeometry x="7670" y="-1900" width="360" height="50" as="geometry" />
        </mxCell>
        <mxCell id="ZUpTjCeXcWNoa8AB_6JW-73" value="&lt;span style=&quot;font-size: 30px;&quot;&gt;RHV - Колчков Дмитрий&lt;/span&gt;" style="text;html=1;align=center;verticalAlign=middle;resizable=0;points=[];autosize=1;strokeColor=none;fillColor=none;" parent="1" vertex="1">
          <mxGeometry x="7670" y="-1809" width="360" height="50" as="geometry" />
        </mxCell>
        <mxCell id="ZUpTjCeXcWNoa8AB_6JW-74" value="&lt;font style=&quot;font-size: 30px;&quot;&gt;ОСРВ - Илья Марченко&lt;/font&gt;" style="text;html=1;align=center;verticalAlign=middle;resizable=0;points=[];autosize=1;strokeColor=none;fillColor=none;" parent="1" vertex="1">
          <mxGeometry x="7670" y="-1718" width="350" height="50" as="geometry" />
        </mxCell>
        <mxCell id="ZUpTjCeXcWNoa8AB_6JW-75" value="&lt;font style=&quot;font-size: 30px;&quot;&gt;ОСХД - Шконда Игорь&lt;/font&gt;" style="text;html=1;align=center;verticalAlign=middle;resizable=0;points=[];autosize=1;strokeColor=none;fillColor=none;" parent="1" vertex="1">
          <mxGeometry x="7670" y="-1627" width="330" height="50" as="geometry" />
        </mxCell>
        <mxCell id="ZUpTjCeXcWNoa8AB_6JW-76" value="&lt;font style=&quot;font-size: 30px;&quot;&gt;DevOps - Пучков Виктор&lt;/font&gt;" style="text;html=1;align=center;verticalAlign=middle;resizable=0;points=[];autosize=1;strokeColor=none;fillColor=none;" parent="1" vertex="1">
          <mxGeometry x="7670" y="-1537" width="360" height="50" as="geometry" />
        </mxCell>
        <mxCell id="ZUpTjCeXcWNoa8AB_6JW-77" value="&lt;span style=&quot;font-size: 30px;&quot;&gt;Cloud - Анненков Евгений&lt;/span&gt;" style="text;html=1;align=center;verticalAlign=middle;resizable=0;points=[];autosize=1;strokeColor=none;fillColor=none;" parent="1" vertex="1">
          <mxGeometry x="7670" y="-1446" width="380" height="50" as="geometry" />
        </mxCell>
        <mxCell id="ZUpTjCeXcWNoa8AB_6JW-78" value="&lt;span style=&quot;font-size: 30px;&quot;&gt;Microsoft - Илья Марченко????&lt;/span&gt;" style="text;html=1;align=center;verticalAlign=middle;resizable=0;points=[];autosize=1;strokeColor=none;fillColor=none;" parent="1" vertex="1">
          <mxGeometry x="7670" y="-1355" width="450" height="50" as="geometry" />
        </mxCell>
        <mxCell id="ZUpTjCeXcWNoa8AB_6JW-79" value="&lt;span style=&quot;font-size: 30px;&quot;&gt;СУБД - Женя, Смирнов Андрей&lt;/span&gt;" style="text;html=1;align=center;verticalAlign=middle;resizable=0;points=[];autosize=1;strokeColor=none;fillColor=none;" parent="1" vertex="1">
          <mxGeometry x="7670" y="-1264" width="460" height="50" as="geometry" />
        </mxCell>
        <mxCell id="vIYiLm4GmB95nVmOz7u8-1" value="&lt;span style=&quot;color: rgb(33, 33, 33); font-family: Calibri, sans-serif, serif, EmojiFont; font-size: 14.6667px; text-align: start; text-wrap-mode: wrap; background-color: rgb(255, 255, 255);&quot;&gt;???Шарашкин&amp;nbsp;&lt;/span&gt;&lt;span style=&quot;color: rgb(33, 33, 33); font-family: Calibri, sans-serif, serif, EmojiFont; font-size: 14.6667px; text-align: start; text-wrap-mode: wrap; background-color: rgb(255, 255, 255);&quot;&gt;Андрей???&lt;/span&gt;" style="shape=umlActor;verticalLabelPosition=bottom;verticalAlign=top;html=1;outlineConnect=0;fontSize=14;" vertex="1" parent="1">
          <mxGeometry x="5170" y="1620" width="30" height="60" as="geometry" />
        </mxCell>
        <mxCell id="vIYiLm4GmB95nVmOz7u8-3" value="???Большаков Иван???&lt;div&gt;&lt;br&gt;&lt;/div&gt;" style="shape=umlActor;verticalLabelPosition=bottom;verticalAlign=top;html=1;outlineConnect=0;" vertex="1" parent="1">
          <mxGeometry x="5345" y="1635" width="30" height="60" as="geometry" />
        </mxCell>
        <mxCell id="vIYiLm4GmB95nVmOz7u8-4" value="Марченко илья" style="shape=umlActor;verticalLabelPosition=bottom;verticalAlign=top;html=1;outlineConnect=0;" vertex="1" parent="1">
          <mxGeometry x="4935" y="2130" width="30" height="60" as="geometry" />
        </mxCell>
      </root>
    </mxGraphModel>
  </diagram>
</mxfile>
